<svg xmlns="http://www.w3.org/2000/svg" width="181" height="86.834"><path fill="#6C7988" d="M77.327 83.635H14.841c-5.566 0-10.093-4.524-10.093-10.092V11.056C4.748 5.491 9.275.962 14.841.962h62.486c5.566 0 10.094 4.528 10.094 10.094v62.488c-.001 5.564-4.528 10.091-10.094 10.091zM14.841 2.413c-4.766 0-8.643 3.877-8.643 8.643v62.488c0 4.766 3.877 8.645 8.643 8.645h62.486c4.768 0 8.645-3.879 8.645-8.645V11.056c0-4.766-3.877-8.643-8.645-8.643H14.841z"/><path fill="#6C7988" d="M46.044 10.948a31.28 31.28 0 00-18.91 6.337L16.598 6.749a4.565 4.565 0 00-3.242-1.359 4.413 4.413 0 00-3.141 1.307l-.095.094a4.557 4.557 0 000 6.436l10.577 10.579a31.277 31.277 0 00-6.101 18.593c0 17.34 14.107 31.448 31.448 31.448 17.342 0 31.449-14.107 31.449-31.448 0-17.343-14.107-31.451-31.449-31.451zm-34.898 1.253a3.107 3.107 0 01-.001-4.385l.095-.094a2.976 2.976 0 012.116-.881c.827 0 1.614.332 2.217.935L25.99 18.192a31.711 31.711 0 00-4.398 4.455L11.146 12.201zm34.898 60.195c-16.541 0-29.998-13.455-29.998-29.997s13.457-30 29.998-30 29.998 13.457 29.998 30c0 16.539-13.457 29.997-29.998 29.997z"/><path fill="#6C7988" d="M46.012 15.879c-14.627 0-26.486 11.858-26.486 26.486 0 14.629 11.858 26.485 26.486 26.485 14.629 0 26.487-11.856 26.487-26.485.001-14.628-11.858-26.486-26.487-26.486zM23.846 37.801a.788.788 0 110-1.577.788.788 0 010 1.577zm2.022-2.845a.997.997 0 110-1.994.997.997 0 010 1.994zm19.219-15.41a.997.997 0 11.001 1.995.997.997 0 01-.001-1.995zm-4.578.725a1.677 1.677 0 110 3.355 1.677 1.677 0 010-3.355zm-5.575 2.266a2.992 2.992 0 110 5.983 2.992 2.992 0 010-5.983zm-5.303 4.715a1.133 1.133 0 110 2.266 1.133 1.133 0 010-2.266zm-1.133 5.528a1.63 1.63 0 113.262 0 1.63 1.63 0 01-3.262 0zm27.983 27.998c-9.288 5.343-20.671 2.695-25.445-5.607s-.768-20.828 8.521-26.167c9.29-5.34 22.418-2.502 27.193 5.802 4.774 8.303-.98 20.634-10.269 25.972z"/><path opacity=".2" fill="#6C7988" d="M46.044 73.847c-17.34 0-31.448-14.107-31.448-31.448 0-4.958 1.155-9.65 3.207-13.826-3.408 5.579-5.021 10.542-5.021 18.02-.001 16.563 15.042 28.813 29.34 28.813 8 0 13.196-1.56 19.102-5.472a31.26 31.26 0 01-15.18 3.913z"/><path opacity=".2" fill="#6C7988" d="M77.327 83.635H14.841c-5.566 0-10.093-4.524-10.093-10.092V11.056c0-2.493.911-4.776 2.414-6.54-3.361 1.638-4.678 5.088-4.678 9.078v62.487c0 5.572 4.519 10.094 10.094 10.094h61.487c3.085 0 5.845-1.385 7.695-3.564a10.047 10.047 0 01-4.433 1.024z"/><path opacity=".6" fill="#6C7988" d="M28.769 54.265S24.6 43.661 30.492 36.498c5.892-7.162 12.419-16.759 31.365-7.926 1.541.764 14.303 10.698 4.432 24.812-3.706 4.508-22.29 24.269-37.52.881z"/><path fill="#6C7988" d="M120.885 22.206l-3.559 1.892-4.592-1.142-1.844-2.672-10.488.988 1.672-2.685-3.324 4.9 11.125-1.844c.768 1.76 1.795 2.602 3.439 3.469 1.625.813 4.219 1 6.25-.219l7.994 7.243-1.627-3.896-5.476-4.845.43-1.189z" opacity=".2"/><path fill="#6C7988" d="M134.902 23.995l-5.193-4.526 4.691-5.494-11.652 2.392c-.766-2.75-3.287-4.777-6.279-4.777a6.484 6.484 0 00-3.846 1.266l-7.953-8.322.648 7.167-6.855.689 5.23 4.411-5.65 5.34 12.463-1.393c1.016 2.287 3.305 3.888 5.963 3.888 1.27 0 2.451-.37 3.455-1 1.742 1.604 8.188 7.229 8.482 7.486l1.193 1.043-1.517-7.599 6.82-.571zm-13.113-7.029l.018.089c.031.157.06.317.074.479l.006.056c.014.145.021.292.021.439v.178a5.07 5.07 0 01-.021.411l-.008.078a5.45 5.45 0 01-4.518 4.781l2.938-9.226a5.455 5.455 0 011.49 2.715zm-4.773-4.268c.869.087 1.68.384 2.379.833l-3.188 10.013a5.4 5.4 0 01-2.422-.7l3.231-10.146zm-6.87 7.004l-9.017 1.008 4.185-3.954-4.203-3.545 5.379-.541-.467-5.155 5.778 6.048a6.505 6.505 0 00-1.856 4.551 6.592 6.592 0 00.201 1.588zm.997-.461l-.02-.107c-.016-.082-.025-.165-.037-.248-.148-1.155-.021-3.062 1.777-4.84a5.42 5.42 0 013.016-1.342l-3.018 9.477a5.464 5.464 0 01-1.718-2.94zm9.675 3.751c1.521-1.302 2.012-2.925 2.135-4.171.006-.055.008-.111.012-.167.01-.127.018-.25.02-.368.002-.058.011-.114.011-.173 0-.051-.009-.1-.009-.15-.004-.16-.014-.304-.021-.433-.004-.034-.004-.069-.008-.104l8.58-1.761-3.345 3.915 4.074 3.552-5.479.461 1.133 5.671c-1.937-1.693-5.679-4.975-7.103-6.272z"/><path opacity=".2" fill="#6C7988" d="M162.826 15.049l-1.908 2.482-3.611.668-2.162-1.295-7.096 4.072.318-2.435-.914 4.862 7.248-4.742c1.148.782 2.762 1.494 4.189 1.324 1.452-.173 3.141-1.03 3.891-2.28l8.125 2.688-2.094-2.5-5.906-1.867-.08-.977z"/><path fill="#6C7988" d="M173.615 11.77l-5.283-1.576 1.611-5.616-7.662 5.583a5.17 5.17 0 00-3.893-1.771 5.189 5.189 0 00-4.464 2.556l-7.086-2.838-1.437-.574 2.875 5.053-4.766 2.776 5.262 1.476-2.362 5.801 8.598-5.135a5.166 5.166 0 003.38 1.259c1.77 0 3.334-.893 4.271-2.25 1.87.607 8.028 2.45 8.313 2.535l1.521.454-3.644-5.061 4.766-2.672zm-17.48-1.622l.871 7.291a4.127 4.127 0 01-1.979-1.509c-.482-.715-1.117-2.141-.365-4.066a4.139 4.139 0 011.473-1.716zm-7.504 9.909l1.602-3.932-3.969-1.114 3.484-2.029-1.875-3.297 5.602 2.244a5.151 5.151 0 00.746 4.719c.014.017.024.035.036.051l-5.626 3.358zm9.49-2.387l-.957-8.013a4.112 4.112 0 011.225-.188c.164 0 .326.013.486.032l.945 7.918a4.08 4.08 0 01-1.432.263c-.089.002-.177-.006-.267-.012zm2.721-.807l-.844-7.063a4.12 4.12 0 011.963 1.76c.123.225.275.551.389.952.017.051.027.101.039.153.01.038.021.076.027.115a4.093 4.093 0 01-.381 2.675c-.02.035-.033.07-.055.104a4.136 4.136 0 01-1.138 1.304zm8.92.694a553.046 553.046 0 01-6.563-2.005c.586-1.349.438-2.595.146-3.504-.006-.021-.016-.04-.021-.06a4.823 4.823 0 00-.111-.303 2.167 2.167 0 00-.104-.245 4.622 4.622 0 00-.131-.271c-.018-.033-.033-.066-.053-.099-.006-.01-.01-.021-.016-.03l5.127-3.735-1.039 3.619 3.863 1.152-3.594 2.016 2.496 3.465z"/><g fill="#6C7988"><path d="M149.383 33.441c-16.064 0-29.135 11.469-29.135 25.567 0 14.099 13.07 25.566 29.135 25.566s29.135-11.47 29.133-25.566c0-14.098-13.069-25.567-29.133-25.567zm21.867 24.583c.459.888.539 1.584.242 2.07-.535.881-2.26 1.072-2.883 1.072h-4.336c-.06.002-1.412.052-2.068 1.143-.547.912-.412 2.207.4 3.851.319.646.367 1.157.141 1.524-.389.627-1.635 1.002-3.33 1.002-1.455 0-2.684-.28-2.977-.475a1.653 1.653 0 00-.933-.277c-1.676 0-3.832 2.33-6.59 7.125-.603 1.045-1.265 1.574-1.967 1.574-2.062 0-4.461-4.125-5.216-5.715l-.018-.034c-.037-.063-.9-1.571-2.326-1.571-1.043 0-2.024.8-2.928 2.373-.453.795-.9 1.196-1.328 1.196-.736 0-1.678-1.051-2.588-2.067-.877-.979-1.783-1.991-2.809-2.481a2.267 2.267 0 00-.975-.24c-1.729 0-2.4 2.328-2.66 3.964-2.791-3.766-4.418-8.242-4.418-13.049 0-13.303 12.424-24.127 27.69-24.127 12.192 0 22.563 6.901 26.25 16.455a2.728 2.728 0 00-.842-.145c-1.229 0-2.488.82-3.295 2.143-.894 1.48-.986 3.234-.236 4.689zm-21.867 25.111c-9.156 0-17.287-3.895-22.33-9.88.121-1.531.635-4.082 1.717-4.082.15 0 .32.046.508.135.83.397 1.664 1.33 2.472 2.229 1.114 1.248 2.172 2.428 3.392 2.428.856 0 1.6-.569 2.27-1.739.684-1.197 1.371-1.83 1.988-1.83.646 0 1.203.715 1.377 1.008.35.738 3.104 6.313 6.18 6.313 1.119 0 2.098-.713 2.904-2.115 3.418-5.941 5.092-6.584 5.651-6.584.128 0 .232.03.334.1.65.43 2.289.654 3.572.654 1.235 0 3.433-.197 4.25-1.516.437-.703.406-1.57-.092-2.572-.627-1.27-.781-2.238-.445-2.809.349-.584 1.17-.625 1.16-.625h4.326c.288 0 2.856-.046 3.801-1.591.506-.83.438-1.884-.203-3.13-.83-1.608-.133-3.075.207-3.633.603-.985 1.531-1.623 2.371-1.623.664 0 1.133.406 1.461.893.535 1.872.824 3.827.824 5.844-.002 13.302-12.426 24.125-27.695 24.125z"/><path d="M134.803 46.896a.541.541 0 01-.18.742l-2.764 1.693a.54.54 0 01-.564-.922l2.764-1.692a.545.545 0 01.744.179zm9.318-3.445a.545.545 0 01-.566.514l-3.236-.161a.544.544 0 01-.514-.565.547.547 0 01.566-.515l3.236.162a.54.54 0 01.514.565zm-14.045 10.082a.546.546 0 01-.566.515l-3.236-.162a.542.542 0 01-.512-.564.544.544 0 01.566-.514l3.236.16a.537.537 0 01.512.565zm27.727-13.682a.54.54 0 01-.563.513l-3.24-.161a.541.541 0 01-.512-.566.543.543 0 01.566-.514l3.235.162a.538.538 0 01.514.566zm8.644 12.962a.545.545 0 01-.566.513l-3.238-.16a.545.545 0 01-.512-.565.543.543 0 01.566-.514l3.236.162a.54.54 0 01.514.564zm-18.185-12.36a.54.54 0 01-.762.047l-2.43-2.146a.54.54 0 01.715-.81l2.43 2.146a.54.54 0 01.047.763zm-18.004 20.886a.537.537 0 01-.762.047l-2.43-2.146a.54.54 0 01.715-.81l2.43 2.146a.542.542 0 01.047.763zm23.918-18.153a.54.54 0 01-.133.752l-2.656 1.856a.54.54 0 01-.752-.133.541.541 0 01.133-.752l2.656-1.857a.54.54 0 01.752.134zM134.73 55.431a.54.54 0 01-.135.752l-2.654 1.856a.541.541 0 01-.752-.133.543.543 0 01.133-.755l2.654-1.856a.543.543 0 01.754.136zm28.838-12.492a.54.54 0 01-.529.551l-3.24.066a.54.54 0 01-.022-1.08l3.238-.066a.54.54 0 01.553.529zm-.709 5.967a.543.543 0 01-.765-.039l-2.178-2.399a.541.541 0 11.801-.726l2.179 2.399c.2.221.184.565-.037.765z"/></g><path opacity=".2" fill="#6C7988" d="M149.383 84.574c-16.064 0-29.135-11.47-29.135-25.565 0-6.404 2.705-12.267 7.158-16.757-6.246 4.69-8.852 10.433-8.852 18.197 0 14.097 13.204 25.207 27.969 25.687 8.762.285 16.432-2.313 21.774-7.707-5.09 3.827-11.699 6.145-18.914 6.145z"/><path fill="#6C7988" d="M149.344 67.108c-6.502 0-11.793-4.4-11.793-9.813s5.291-9.813 11.793-9.813 11.793 4.4 11.793 9.813-5.291 9.813-11.793 9.813zm0-18.183c-5.709 0-10.354 3.756-10.354 8.372 0 4.617 4.645 8.373 10.354 8.373s10.354-3.756 10.354-8.373c-.001-4.616-4.645-8.372-10.354-8.372z"/></svg>