<svg xmlns="http://www.w3.org/2000/svg" width="158.5" height="113.118"><path fill="#6C7988" d="M69.381 27.455H25.625v-5.563h43.756v5.563zm-43.015-.743h42.272v-4.079H26.366v4.079zm43.015 10.384H25.625v-5.562h43.756v5.562zm-43.015-.742h42.272v-4.079H26.366v4.079zm43.015 10.012H25.625v-5.563h43.756v5.563zm-43.015-.741h42.272v-4.079H26.366v4.079zm0 56.363h21.137v.74H26.366zm0-2.224h21.137v.74H26.366zm0-2.226h21.137v.741H26.366zM6.713 24.488h1.483v7.046H6.713zm0 18.91h1.483v6.675H6.713zm0 46.352h1.483v7.047H6.713zm0-9.27h1.483v6.674H6.713zm0-46.351h1.483v6.674H6.713zm0-18.911h1.483v6.675H6.713zm0 55.991h1.483v6.678H6.713zm0-18.54h1.483v6.677H6.713zm0 9.27h1.483v6.677H6.713z"/><g fill="#6C7988"><path d="M5.416 24.858h3.53a3.053 3.053 0 002.495 1.298 3.063 3.063 0 003.059-3.06 3.061 3.061 0 00-3.059-3.059c-1.11 0-2.082.596-2.618 1.483H5.416c-.92 0-1.669.749-1.669 1.668s.749 1.67 1.669 1.67zm6.024-4.078a2.32 2.32 0 012.317 2.317 2.32 2.32 0 01-2.317 2.317c-.573 0-1.096-.21-1.5-.556h1.407c.92 0 1.669-.749 1.669-1.669s-.749-1.668-1.669-1.668H9.752a2.299 2.299 0 011.688-.741zm-6.024 1.483h5.933c.511 0 .927.417.927.927s-.416.927-.927.927H5.416a.928.928 0 110-1.854zm0 12.237h3.53a3.053 3.053 0 002.495 1.298 3.062 3.062 0 003.059-3.059 3.062 3.062 0 00-3.059-3.06c-1.11 0-2.082.596-2.618 1.483H5.416a1.67 1.67 0 00-1.669 1.669c0 .919.749 1.669 1.669 1.669zm6.024-4.08a2.32 2.32 0 012.317 2.318 2.32 2.32 0 01-2.317 2.317 2.298 2.298 0 01-1.5-.557h1.407c.92 0 1.669-.749 1.669-1.668a1.67 1.67 0 00-1.669-1.669H9.752a2.303 2.303 0 011.688-.741zm-6.024 1.484h5.933a.928.928 0 010 1.855H5.416a.927.927 0 110-1.855zm0 11.866h3.53a3.053 3.053 0 002.495 1.298 3.062 3.062 0 003.059-3.06 3.062 3.062 0 00-3.059-3.06c-1.11 0-2.082.596-2.618 1.484H5.416c-.92 0-1.669.749-1.669 1.668 0 .921.749 1.67 1.669 1.67zm6.024-4.08a2.32 2.32 0 012.317 2.317 2.32 2.32 0 01-2.317 2.318 2.298 2.298 0 01-1.5-.557h1.407c.92 0 1.669-.749 1.669-1.669 0-.919-.749-1.668-1.669-1.668H9.752a2.306 2.306 0 011.688-.741zm-6.024 1.484h5.933a.928.928 0 010 1.854H5.416a.928.928 0 110-1.854zm0 11.867h3.53a3.053 3.053 0 002.495 1.298 3.063 3.063 0 003.059-3.06 3.062 3.062 0 00-3.059-3.06c-1.11 0-2.082.596-2.618 1.484H5.416c-.92 0-1.669.749-1.669 1.668 0 .921.749 1.67 1.669 1.67zm6.024-4.08a2.32 2.32 0 012.317 2.317 2.32 2.32 0 01-2.317 2.316 2.292 2.292 0 01-1.5-.556h1.407c.92 0 1.669-.749 1.669-1.669 0-.919-.749-1.668-1.669-1.668H9.752a2.306 2.306 0 011.688-.74zm-6.024 1.483h5.933a.928.928 0 010 1.854H5.416a.928.928 0 110-1.854zm0 11.867h3.53a3.054 3.054 0 002.495 1.299 3.063 3.063 0 000-6.124c-1.11 0-2.082.598-2.618 1.484H5.416a1.671 1.671 0 000 3.341zm6.024-4.079c1.277 0 2.317 1.04 2.317 2.317s-1.04 2.316-2.317 2.316a2.284 2.284 0 01-1.5-.558h1.407c.92 0 1.669-.75 1.669-1.67 0-.919-.749-1.669-1.669-1.669H9.752a2.313 2.313 0 011.688-.736zm-6.024 1.483h5.933a.928.928 0 010 1.856H5.416a.929.929 0 010-1.856zm0 11.868h3.53a3.052 3.052 0 002.495 1.297 3.063 3.063 0 003.059-3.06 3.063 3.063 0 00-3.059-3.062c-1.11 0-2.082.597-2.618 1.482H5.416a1.672 1.672 0 000 3.343zm6.024-4.081a2.32 2.32 0 012.317 2.315 2.319 2.319 0 01-2.317 2.313 2.288 2.288 0 01-1.5-.557h1.407c.92 0 1.669-.75 1.669-1.668 0-.92-.749-1.67-1.669-1.67H9.752a2.326 2.326 0 011.688-.733zm-6.024 1.482h5.933a.93.93 0 010 1.857H5.416a.93.93 0 01-.928-.928.93.93 0 01.928-.929zm0 11.868h3.53a3.053 3.053 0 002.494 1.298 3.063 3.063 0 000-6.125c-1.11 0-2.082.6-2.618 1.48H5.416a1.674 1.674 0 000 3.347zm6.024-4.079c1.277 0 2.317 1.039 2.317 2.313S12.717 81.4 11.44 81.4a2.298 2.298 0 01-1.5-.557h1.407a1.67 1.67 0 000-3.34H9.752a2.335 2.335 0 011.688-.73zm-6.024 1.483h5.933a.928.928 0 010 1.856H5.416a.928.928 0 010-1.856zm0 11.866h3.53a3.055 3.055 0 002.494 1.298 3.064 3.064 0 000-6.125c-1.11 0-2.082.599-2.618 1.482H5.416c-.92 0-1.669.746-1.669 1.668s.749 1.677 1.669 1.677zm6.024-4.079c1.277 0 2.317 1.039 2.317 2.313s-1.04 2.315-2.317 2.315a2.298 2.298 0 01-1.5-.557h1.407a1.67 1.67 0 000-3.338H9.752a2.326 2.326 0 011.688-.733zm-6.024 1.482h5.933a.929.929 0 010 1.857H5.416a.928.928 0 010-1.857z"/><path d="M96.078 15.218h-5.932V7.802a5.196 5.196 0 00-5.191-5.191H6.713v9.641H5.416c-.92 0-1.669.749-1.669 1.668 0 .92.749 1.669 1.669 1.669h3.53a3.05 3.05 0 002.495 1.298 3.063 3.063 0 003.059-3.059 3.062 3.062 0 00-3.059-3.06c-1.11 0-2.082.596-2.618 1.483h-.627V4.093H83.1v105.312H8.196v-9.641h.749a3.057 3.057 0 002.495 1.297A3.063 3.063 0 0014.499 98a3.063 3.063 0 00-3.059-3.062 3.07 3.07 0 00-2.618 1.479H5.416a1.67 1.67 0 00-1.669 1.67c0 .918.749 1.668 1.669 1.668h1.298v11.123h78.242a5.192 5.192 0 005.19-5.188v-57.1h3.707c1.271 0 2.226-1.004 2.226-2.335V36.37l-.006.005a1.44 1.44 0 00.006-.132v-9.885l-.006.005a1.44 1.44 0 00.006-.132l-.001-11.013zM4.487 13.919a.93.93 0 01.928-.927h5.933a.928.928 0 010 1.854H5.416a.928.928 0 01-.929-.927zm6.953-2.409a2.32 2.32 0 012.317 2.318 2.32 2.32 0 01-2.317 2.317c-.573 0-1.096-.21-1.5-.556h1.407c.92 0 1.669-.749 1.669-1.669s-.749-1.668-1.669-1.668H9.752a2.296 2.296 0 011.688-.742zm0 84.176a2.32 2.32 0 012.317 2.316 2.319 2.319 0 01-2.317 2.313 2.292 2.292 0 01-1.5-.556h1.407a1.672 1.672 0 000-3.342H9.752a2.328 2.328 0 011.688-.731zm-6.953 2.41c0-.512.417-.93.928-.93h5.933a.928.928 0 010 1.856H5.416a.931.931 0 01-.929-.926zm84.175-82.263l-.008.13c0 .098.008 9.847.008 11.861v9.27l-.008.747c0 .092.008 7.443.008 10.007v57.847a3.71 3.71 0 01-3.707 3.707h-1.113V4.094h1.113a3.71 3.71 0 013.707 3.708v8.031zm2.379.868h3.031l-3.852 3.85a443.95 443.95 0 01-.021-3.012l.842-.838zm3.555 29.554c0 .41-.229.852-.74.852h-3.602c-.006-2.656-.043-6.488-.057-8.528h4.398v7.676h.001zm0-10.012c0 .411-.229.853-.74.853h-3.6c0-2.781-.004-6.518-.004-8.528h4.344v7.675zm0-10.013c0 .411-.229.853-.74.853h-.219l.959-.959v.106zm0-1.154l-2.008 2.008h-2.334c0-.183 0-.385-.002-.603l4.344-4.343v2.938zm0-3.987l-4.348 4.347-.021-3.844 4.369-4.368v3.865z"/></g><path fill="#6C7988" d="M6.713 110.887V99.764H5.416c-.92 0-1.669-.75-1.669-1.668 0-.922.749-1.67 1.669-1.67h1.298v-6.305H5.416c-.92 0-1.669-.75-1.669-1.668 0-.92.749-1.67 1.669-1.67h1.298V80.85H5.416c-.92 0-1.669-.75-1.669-1.67 0-.918.749-1.668 1.669-1.668h1.298v-5.934H5.416c-.92 0-1.669-.75-1.669-1.668 0-.92.749-1.67 1.669-1.67h1.298v-5.93H5.416c-.92 0-1.669-.75-1.669-1.67 0-.918.749-1.668 1.669-1.668h1.298v-5.934H5.416c-.92 0-1.669-.749-1.669-1.669 0-.919.749-1.668 1.669-1.668h1.298v-5.934H5.416c-.92 0-1.669-.749-1.669-1.669 0-.919.749-1.668 1.669-1.668h1.298v-5.934H5.416c-.92 0-1.669-.749-1.669-1.668a1.67 1.67 0 011.669-1.669h1.298v-6.304H5.416c-.92 0-1.669-.749-1.669-1.669s.749-1.668 1.669-1.668h1.298v-5.933H5.416c-.92 0-1.669-.749-1.669-1.669s.749-1.668 1.669-1.668h1.298v-5.19H4.487v9.271H2.449a1.298 1.298 0 100 2.596h2.039v6.674H2.449a1.298 1.298 0 100 2.596h2.039v7.046H2.449a1.298 1.298 0 100 2.595h2.039v6.676H2.449a1.298 1.298 0 100 2.595h2.039v6.675H2.449a1.298 1.298 0 100 2.596h2.039v6.675H2.449a1.297 1.297 0 100 2.596h2.039v6.676H2.449a1.299 1.299 0 000 2.598h2.039V81.6H2.449c-.717 0-1.298.581-1.298 1.299 0 .72.581 1.3 1.298 1.3h2.039v6.676H2.449a1.297 1.297 0 100 2.596h2.039v7.045H2.449a1.299 1.299 0 000 2.598h2.039v10.014h74.534c1.938 0 3.578-.498 4.189-2.229H6.713v-.012z" opacity=".2"/><path fill="#6C7988" d="M112.193 1.167l-5.656 20.888v86.916h11.313V22.055l-5.657-20.888zm-1.31 10.246h2.619l2.852 10.528c-.502.604-.797.684-.914.677-.355-.014-.773-.741-1.021-1.176l-.381-.664-.426.639c-.334.505-.959 1.451-1.521 1.412-.381-.023-.827-.507-1.264-1.364l-.361-.718-.448.667c-.535.796-1.039 1.211-1.412 1.161-.235-.03-.446-.244-.608-.479l2.885-10.683zm5.553 87.664v2.827h-8.48v-2.827h8.48zm-5.657-1.414V23.091c.391.427.807.651 1.254.677.029.002.059.003.088.003.588 0 1.084-.352 1.486-.781v74.67l-2.828.003zm-2.828-74.33c.158.087.334.152.527.177.445.059.898-.102 1.354-.47v74.623h-1.885v-74.33h.004zm8.485 84.228h-8.48v-4.242h8.48v4.242zm-1.887-9.898v-74.46c.244.203.525.345.855.356.34.015.68-.107 1.029-.375v74.479h-1.884z"/><path fill="#6C7988" d="M106.537 108.975v-86.92L110.76 6.46l-.924-3.408-5.654 20.886v86.921h11.31v-1.884zm24.755 2.184c.44 0 .708-.3.708-.74V107.6l-3.467-6.854c-.041-.092-.236-.188-.236-.289 0 0-.105-29.006-.105-53.551 0-8.999-.041-17.397-.033-23.547.005-3.075-.01-8.886-.008-9.349.011-.842.059-1.398.761-1.398.261 0 1.091 0 1.091-.002V6.831c0-1.507.936-2.732 2.291-3.185-.409-.395-.986-.587-1.604-.587h-.166c-1.5 0-3.021 1.108-3.051 2.813l.029 6.609c0 .002-.279.016-.469.016-1.031 0-1.031.969-1.031.969v86.056l3.461 7.475.539.002v3.42c-.002.891.848.74 1.29.74z" opacity=".2"/><path fill="#6C7988" d="M138.764 13.291c0-.386-.229-.699-.617-.699l-1.146.001V6.831c.021-2.313-1.63-3.771-3.515-3.771 0 0-3.485-.125-3.485 3.771v5.776l-1.097.002c-.702 0-.731.556-.737 1.398-.006.463-.021 1.144-.024 2.017-.007 1.744-.017 84.43-.017 84.43a.68.68 0 00.063.289l3.396 7.475a.69.69 0 00.632.41h.387v2.404a1.085 1.085 0 102.172 0v-2.396h.431a.684.684 0 00.64-.443l2.998-7.576a.704.704 0 00.042-.257l-.123-87.069zM132 6.831c0-1.834 1.484-1.771 1.484-1.771 1 0 1.516.659 1.516 1.771v5.765c-1 .001-.885.003-1.65.004l-1.35.004V6.831zM133.256 14c1.516-.003 3.063-.007 4.114-.008l.125 85.317H132v-85.25c0-.02-.009-.037-.012-.056l1.268-.003zm-3.715.008l1.47-.003c-.002.019-.011.035-.011.054v85.25h-1.477c-.002-9.607-.002-83.294.018-85.301zm5.203 93.227l-2.067-.005-2.921-6.421h7.512l-2.524 6.426zM156 105.842V91.276a2.216 2.216 0 00-2.217-2.217h-5.566A2.216 2.216 0 00146 91.276v14.566c0 1.225.992 2.217 2.217 2.217h5.566a2.216 2.216 0 002.217-2.217zm-7.261-14.783h4.521c.408 0 .739.331.739.738v11.262h-6V91.797a.74.74 0 01.74-.738zm0 15a.74.74 0 01-.739-.739v-1.261h6v1.261a.74.74 0 01-.739.739h-4.522z"/><path fill="#6C7988" d="M146 105.415c0 1.224.943 2.158 2.166 2.158l6.195.057c0 1.021-.738 1.432-1.426 1.432h-5.482c-1.672 0-2.453-1.725-2.453-2.539v-14.04c0-.688 0-1.261 1-1.425v14.357z" opacity=".2"/></svg>