<svg xmlns="http://www.w3.org/2000/svg" width="200.5" height="127.762"><path fill="#6C7988" d="M60.664 109.332H8.748V21.014c0-1.269.729-1.997 1.997-1.997h47.922c1.269 0 1.998.729 1.998 1.997l-.001 88.318zm-50.995-.922h50.072V21.014c0-.764-.312-1.075-1.075-1.075H10.745c-.764 0-1.075.313-1.075 1.075l-.001 87.396zm25.114 13.414c-3.092 0-5.606-2.519-5.606-5.606s2.515-5.604 5.606-5.604a5.611 5.611 0 015.605 5.604 5.61 5.61 0 01-5.605 5.606zm0-10.291c-2.584 0-4.686 2.102-4.686 4.685s2.102 4.687 4.686 4.687c2.583 0 4.685-2.104 4.685-4.687s-2.102-4.685-4.685-4.685z"/><path fill="#6C7988" d="M35.691 118.548h-1.975a1.32 1.32 0 01-1.317-1.317v-1.974c0-.729.592-1.317 1.317-1.317h1.975a1.32 1.32 0 011.316 1.317v1.974a1.317 1.317 0 01-1.316 1.317zm-1.973-3.687a.399.399 0 00-.396.396v1.974c0 .222.178.396.396.396h1.974a.395.395 0 00.396-.396v-1.974a.396.396 0 00-.396-.396h-1.974z"/><circle fill="#6C7988" cx="34.475" cy="9.571" r="1.152"/><circle fill="#6C7988" cx="27.013" cy="14.243" r=".755"/><path fill="#6C7988" d="M38.764 13.488h-8.626c-.445 0-.807.323-.807.771s.361.768.807.768h8.626c.444 0 .807-.319.807-.768-.001-.448-.363-.771-.807-.771zm-7.901 8.525h-.195v-1.294l-.392.144v-.176l.558-.209h.03l-.001 1.535zm1.528-.653c0 .229-.039.396-.117.51-.077.108-.198.167-.364.167-.163 0-.283-.057-.361-.163-.079-.108-.12-.271-.122-.484v-.26c0-.227.039-.395.116-.5.078-.109.199-.164.365-.164.165 0 .286.053.363.158.078.104.118.268.12.485v.251zm-.194-.265c0-.165-.023-.285-.069-.36-.046-.072-.12-.11-.22-.11s-.172.038-.217.109c-.046.075-.07.19-.071.349v.311c0 .165.024.287.072.366.048.079.12.118.218.118a.236.236 0 00.214-.111c.046-.074.07-.188.072-.351l.001-.321zm.456.816c0-.034.011-.063.03-.084.02-.022.05-.033.09-.033s.07.011.091.033c.021.021.031.05.031.084 0 .029-.01.059-.031.081-.021.021-.051.029-.091.029s-.07-.011-.09-.029a.12.12 0 01-.03-.081zm.002-.928c0-.03.01-.062.029-.084.021-.021.05-.03.09-.03.039 0 .07.011.091.03a.123.123 0 01.031.084.112.112 0 01-.031.081c-.02.022-.052.033-.091.033-.04 0-.069-.011-.09-.033a.118.118 0 01-.029-.081zm.788.171h.146c.091-.001.163-.022.216-.07a.24.24 0 00.079-.19c0-.179-.09-.269-.269-.269a.278.278 0 00-.201.069.255.255 0 00-.074.19h-.194c0-.122.044-.222.133-.302.089-.08.2-.121.338-.121.144 0 .257.038.339.115a.406.406 0 01.122.315.335.335 0 01-.064.193.417.417 0 01-.176.14.37.37 0 01.195.132.38.38 0 01.069.229.417.417 0 01-.135.327.51.51 0 01-.351.121.516.516 0 01-.35-.117.39.39 0 01-.135-.31h.195c0 .081.026.146.079.193a.3.3 0 00.211.073c.094 0 .165-.025.215-.074.05-.048.075-.119.075-.21 0-.089-.027-.157-.083-.205a.357.357 0 00-.235-.073h-.146l.001-.156zm1.884.206c0 .229-.039.396-.116.51-.078.108-.199.167-.365.167-.162 0-.283-.057-.362-.163-.078-.108-.118-.271-.121-.484v-.26c0-.227.038-.395.116-.5.078-.109.199-.164.365-.164.165 0 .285.053.363.158.077.104.118.268.12.485v.251zm-.195-.265c0-.165-.022-.285-.069-.36-.045-.072-.119-.11-.22-.11-.1 0-.172.038-.218.109-.046.075-.068.19-.07.349v.311c0 .165.023.287.071.366a.24.24 0 00.218.118c.098 0 .168-.037.215-.111s.069-.188.072-.351l.001-.321zm1.87.518h-.641l-.146.4h-.205l.583-1.529h.177l.584 1.529h-.205l-.147-.4zm-.58-.165h.521l-.262-.718-.259.718zm1.4-.964l.498 1.247.5-1.247h.263v1.529h-.203v-.595l.021-.646-.502 1.238h-.152l-.501-1.235.021.643v.595h-.201v-1.529h.256z"/><path fill="#6C7988" d="M64.35 28.249V11.706c0-4.946-4.021-8.973-8.97-8.973H14.338c-4.945 0-8.97 4.024-8.97 8.973v7.634c-.52.075-.922.52-.922 1.06v4.915c0 .54.402.984.922 1.063v1.564c-.52.076-.922.521-.922 1.063v7.063c0 .54.402.984.922 1.063v1.564c-.52.075-.922.521-.922 1.063v7.063c0 .54.402.984.922 1.063v68.458c0 4.946 4.024 8.97 8.97 8.97h41.041c4.947 0 8.971-4.021 8.971-8.97V37.434c.521-.075.922-.52.922-1.06v-7.065a1.076 1.076 0 00-.922-1.06zm-1.229 88.087c0 4.27-3.473 7.741-7.742 7.741H14.338c-4.268 0-7.741-3.477-7.741-7.741V11.709c0-4.271 3.474-7.741 7.741-7.741h41.041c4.27 0 7.742 3.473 7.742 7.741v104.627z"/><path d="M10.898 21.731h.614v.358h-.614zm.922-.256h.614v.614h-.614zm2.764-.922h.614v1.536h-.614zm-1.842.615h.614v.921h-.614zm.921-.307h.614v1.229h-.614zm40.857-.308v1.536h3.378v-.307h.616v-.921h-.616v-.308z" fill="#6C7988"/><path opacity=".2" fill="#6C7988" d="M55.379 125.307H14.338c-4.945 0-8.97-4.021-8.97-8.971V11.706c0-1.705.479-3.3 1.307-4.658-2.956 1.469-4.071 2.983-4.071 6.501v104.629c0 4.946 4.024 9.584 8.97 9.584h41.041c3.242 0 5.164-.806 6.74-3.39a8.89 8.89 0 01-3.976.935z"/><path fill="#6C7988" d="M78.5 24.381v76h119v-76h-119zm116 73h-113V29.118L138 64.641l56.5-35.521v68.261zm-56.402-34.866L81.997 27.381h112.198l-56.097 35.134z"/><path fill="#6C7988" d="M109.5 90.381h-19v-17h19v17zm-17-2h15v-13h-15v13z"/><path fill="none" d="M151.5 75.381h-36"/><path fill="#6C7988" d="M115.5 73.381h36v2h-36z"/><path fill="none" d="M137.5 79.381h-22"/><path fill="#6C7988" d="M115.5 77.381h22v2h-22z"/><path fill="none" d="M140.5 83.381h-25"/><path fill="#6C7988" d="M115.5 81.381h25v2h-25z"/><path fill="#6C7988" d="M78.5 100.381v-69h-3v72h116v-3z" opacity=".2"/></svg>