<svg xmlns="http://www.w3.org/2000/svg" width="261.417" height="316.25"><path fill="#6C7988" d="M158.257 179.535h-55.689a1.373 1.373 0 01-1.371-1.371v-39.543c0-.756.615-1.371 1.371-1.371h55.689a1.37 1.37 0 011.369 1.371v39.543a1.37 1.37 0 01-1.369 1.371zm-55.524-1.537h55.354v-39.21h-55.354v39.21zm-50.741-53.049H35.846V69.595h16.146v55.354zm-14.607-1.537h13.07V71.133h-13.07v52.279zm186.823 1.537h-16.146V69.595h16.146v55.354zm-14.606-1.537h13.065V71.133h-13.065v52.279z"/><path fill="#6C7988" d="M256.451 5.402c-.943-1.787-3.123-2.694-6.488-2.694l-66.02.001H12.07s-.135-.005-.367-.005c-1.914 0-6.532.302-8.105 3.097-.865 1.539-.654 3.391.632 5.508L28.303 50.77c.282.499 1.415 2.048 4.758 2.89-2.947 1.922-4.902 5.243-4.902 9.016v117.629c0 5.938 4.826 10.764 10.764 10.764h180.67c5.939 0 10.767-4.823 10.767-10.764V62.676c0-3.672-1.854-6.917-4.666-8.86 2.179-.717 5.611-2.685 9.188-8.049 5.289-7.932 19.824-32.864 20.744-34.442.347-.525 2.138-3.434.825-5.923zm-145.696 182.59a3.842 3.842 0 013.512-2.307h30.752c1.57 0 2.918.953 3.514 2.307h-37.778zM227.283 62.676v117.629c0 4.237-3.449 7.688-7.689 7.688h-69.418a5.39 5.39 0 00-5.155-3.845H114.27a5.386 5.386 0 00-5.154 3.845h-70.19c-4.24 0-7.688-3.449-7.688-7.688V62.676c0-4.239 3.447-7.688 7.688-7.688h13.109a1.938 1.938 0 00-.039.384v1.538c0 1.06.861 1.922 1.922 1.922h149.918a1.924 1.924 0 001.924-1.922v-1.538c0-.132-.014-.26-.039-.384H219.6c4.233 0 7.683 3.448 7.683 7.688zm-22.297-7.304v1.538c0 .636-.52 1.153-1.152 1.153H53.914a1.155 1.155 0 01-1.153-1.153v-1.538c0-.136.028-.264.071-.384h152.083c.043.12.071.248.071.384zm19.118-9.61H35.979L16.583 11.165h228.11l-20.589 34.597z"/><path fill="#6C7988" d="M64.293 73.51a.699.699 0 01-.698.698h-7.061a.697.697 0 01-.697-.698v-3.217c0-.385.313-.697.697-.697h7.061c.387 0 .698.312.698.698v3.216zm0 9.994a.699.699 0 01-.698.698h-7.061a.697.697 0 01-.697-.698v-7.062c0-.385.313-.698.697-.698h7.061c.387 0 .698.312.698.698v7.062zm9.994 0a.698.698 0 01-.696.698h-7.062a.699.699 0 01-.699-.698v-7.062c0-.385.313-.698.699-.698h7.062c.385 0 .696.312.696.698v7.062zm9.996 0a.699.699 0 01-.698.698h-7.061a.699.699 0 01-.698-.698v-7.062c0-.385.313-.698.698-.698h7.061c.385 0 .698.312.698.698v7.062zm9.995 0a.699.699 0 01-.699.698h-7.061a.698.698 0 01-.697-.698v-7.062c0-.385.313-.698.697-.698h7.061c.387 0 .699.312.699.698v7.062zm9.994 0a.699.699 0 01-.698.698h-7.062a.696.696 0 01-.697-.698v-7.062c0-.385.311-.698.697-.698h7.062c.386 0 .698.312.698.698v7.062zm9.995 0a.698.698 0 01-.697.698h-7.061a.696.696 0 01-.699-.698v-7.062c0-.385.311-.698.699-.698h7.061c.385 0 .697.312.697.698v7.062zm9.994 0a.698.698 0 01-.697.698h-7.061a.697.697 0 01-.699-.698v-7.062c0-.385.312-.698.699-.698h7.061c.385 0 .697.312.697.698v7.062zm9.996 0a.699.699 0 01-.698.698h-7.063a.696.696 0 01-.696-.698v-7.062c0-.385.311-.698.696-.698h7.063c.385 0 .698.312.698.698v7.062zm9.993 0a.698.698 0 01-.697.698h-7.061a.696.696 0 01-.699-.698v-7.062c0-.385.313-.698.699-.698h7.061c.386 0 .697.312.697.698v7.062zm9.994 0a.698.698 0 01-.695.698h-7.063a.696.696 0 01-.699-.698v-7.062c0-.385.313-.698.699-.698h7.063c.386 0 .695.312.695.698v7.062zm9.994 0a.698.698 0 01-.695.698h-7.063a.694.694 0 01-.697-.698v-7.062c0-.385.313-.698.697-.698h7.063c.385 0 .695.312.695.698v7.062zm9.996 0a.698.698 0 01-.697.698h-7.063a.695.695 0 01-.697-.698v-7.062c0-.385.313-.698.697-.698h7.063c.385 0 .697.312.697.698v7.062zm9.995 0a.699.699 0 01-.699.698h-7.062a.696.696 0 01-.696-.698v-7.062c0-.385.313-.698.696-.698h7.062c.388 0 .699.312.699.698v7.062zm-69.962 9.994a.698.698 0 01-.697.698h-7.061a.696.696 0 01-.699-.698v-7.061c0-.385.311-.698.699-.698h7.061c.385 0 .697.312.697.698v7.061zm-9.995 0a.698.698 0 01-.698.698h-7.062a.696.696 0 01-.697-.698v-7.061c0-.385.311-.698.697-.698h7.062c.386 0 .698.312.698.698v7.061zm-9.994 0a.698.698 0 01-.699.698h-7.061a.698.698 0 01-.697-.698v-7.061c0-.385.313-.698.697-.698h7.061c.387 0 .699.312.699.698v7.061zm-9.995 0a.698.698 0 01-.698.698h-7.061a.699.699 0 01-.698-.698v-7.061c0-.385.313-.698.698-.698h7.061c.385 0 .698.312.698.698v7.061zm-9.996 0a.698.698 0 01-.696.698H56.534a.697.697 0 01-.697-.698v-7.061c0-.385.313-.698.697-.698h17.057c.385 0 .696.312.696.698v7.061zm1.538 9.995a.698.698 0 01-.697.698H56.534a.697.697 0 01-.697-.698v-7.061c0-.386.313-.698.697-.698h18.594c.385 0 .697.311.697.698v7.061zm1.539 9.995a.697.697 0 01-.699.697h-20.13a.698.698 0 01-.698-.697v-7.063c0-.387.313-.696.698-.696h20.13c.387 0 .699.313.699.696v7.063zm8.457-9.995a.698.698 0 01-.699.698h-7.061a.698.698 0 01-.697-.698v-7.061c0-.386.313-.698.697-.698h7.061c.387 0 .699.311.699.698v7.061zm38.44-9.995a.698.698 0 01-.697.698h-7.061a.697.697 0 01-.699-.698v-7.061c0-.385.312-.698.699-.698h7.061c.385 0 .697.312.697.698v7.061zm9.996 0a.698.698 0 01-.698.698h-7.063a.696.696 0 01-.696-.698v-7.061c0-.385.311-.698.696-.698h7.063c.385 0 .698.312.698.698v7.061zm9.993 0a.698.698 0 01-.697.698h-7.061a.696.696 0 01-.699-.698v-7.061c0-.385.313-.698.699-.698h7.061c.386 0 .697.312.697.698v7.061zm9.994 0a.697.697 0 01-.695.698h-7.063a.696.696 0 01-.699-.698v-7.061c0-.385.313-.698.699-.698h7.063c.386 0 .695.312.695.698v7.061zm9.994 0a.697.697 0 01-.695.698h-7.063a.694.694 0 01-.697-.698v-7.061c0-.385.313-.698.697-.698h7.063c.385 0 .695.312.695.698v7.061zm9.996 0a.698.698 0 01-.697.698h-7.063a.695.695 0 01-.697-.698v-7.061c0-.385.313-.698.697-.698h7.063c.385 0 .697.312.697.698v7.061zm9.995 0a.698.698 0 01-.699.698h-7.062a.696.696 0 01-.696-.698v-7.061c0-.385.313-.698.696-.698h7.062c.388 0 .699.312.699.698v7.061zm9.996 0a.698.698 0 01-.699.698h-7.062a.697.697 0 01-.696-.698v-7.061c0-.385.313-.698.696-.698h7.062c.388 0 .699.312.699.698v7.061zm9.993 0a.698.698 0 01-.696.698h-7.063a.697.697 0 01-.696-.698v-7.061c0-.385.313-.698.696-.698h7.063c.386 0 .696.312.696.698v7.061zm-108.403 9.995a.698.698 0 01-.698.698h-7.062a.698.698 0 01-.697-.698v-7.061c0-.386.313-.698.697-.698h7.062c.386 0 .698.311.698.698v7.061zm9.995 0a.698.698 0 01-.697.698h-7.061a.697.697 0 01-.699-.698v-7.061c0-.386.312-.698.699-.698h7.061c.385 0 .697.311.697.698v7.061zm9.994 0a.698.698 0 01-.697.698h-7.061a.698.698 0 01-.699-.698v-7.061c0-.386.313-.698.699-.698h7.061c.385 0 .697.311.697.698v7.061zm9.996 0a.698.698 0 01-.699.698h-7.062a.696.696 0 01-.696-.698v-7.061c0-.386.311-.698.696-.698h7.062c.386 0 .699.311.699.698v7.061zm9.992 0a.698.698 0 01-.696.698h-7.062a.695.695 0 01-.697-.698v-7.061c0-.386.311-.698.697-.698h7.062c.387 0 .696.311.696.698v7.061zm9.995 0a.697.697 0 01-.695.698h-7.063a.696.696 0 01-.699-.698v-7.061c0-.386.313-.698.699-.698h7.063c.386 0 .695.311.695.698v7.061zm9.996 0a.698.698 0 01-.697.698h-7.063a.694.694 0 01-.697-.698v-7.061c0-.386.313-.698.697-.698h7.063c.386 0 .697.311.697.698v7.061zm9.994 0a.698.698 0 01-.697.698h-7.063a.695.695 0 01-.697-.698v-7.061c0-.386.313-.698.697-.698h7.063c.385 0 .697.311.697.698v7.061zm9.994 0a.698.698 0 01-.697.698h-7.063a.695.695 0 01-.697-.698v-7.061c0-.386.313-.698.697-.698h7.063c.385 0 .697.311.697.698v7.061zm9.997 0a.698.698 0 01-.699.698h-7.06a.695.695 0 01-.698-.698v-7.061c0-.386.312-.698.698-.698h7.06c.388 0 .699.311.699.698v7.061zm18.45 0a.698.698 0 01-.696.698h-15.519a.697.697 0 01-.698-.698v-7.061c0-.386.313-.698.698-.698h15.519c.386 0 .696.311.696.698v7.061zm0 9.995a.697.697 0 01-.696.697h-23.976a.697.697 0 01-.698-.697v-7.063c0-.387.313-.696.698-.696h23.976c.386 0 .696.313.696.696v7.063zm-116.86 0a.697.697 0 01-.698.697h-7.062a.698.698 0 01-.697-.697v-7.063c0-.387.313-.696.697-.696h7.062c.386 0 .698.313.698.696v7.063zm9.995 0a.697.697 0 01-.697.697h-7.061a.698.698 0 01-.699-.697v-7.063c0-.387.313-.696.699-.696h7.061c.385 0 .697.313.697.696v7.063zm9.994 0a.697.697 0 01-.697.697h-7.061a.697.697 0 01-.699-.697v-7.063c0-.387.313-.696.699-.696h7.061c.385 0 .697.313.697.696v7.063zm-43.054 10.763a.698.698 0 01-.698.698h-7.061a.697.697 0 01-.697-.698v-7.062c0-.385.313-.697.697-.697h7.061c.387 0 .698.311.698.697v7.062zm9.994 0a.698.698 0 01-.696.698h-7.062a.699.699 0 01-.699-.698v-7.062c0-.385.313-.697.699-.697h7.062c.385 0 .696.311.696.697v7.062zm9.996 0a.698.698 0 01-.698.698h-7.061a.699.699 0 01-.698-.698v-7.062c0-.385.313-.697.698-.697h7.061c.385 0 .698.311.698.697v7.062zm13.07 0a.698.698 0 01-.697.698h-9.367a.698.698 0 01-.697-.698v-7.062c0-.385.313-.697.697-.697h9.367c.385 0 .697.311.697.697v7.062zm76.113-7.062a.7.7 0 00-.698-.697h-7.062a.695.695 0 00-.697.697v7.063c0 .385.312.698.697.698h7.062a.697.697 0 00.698-.698v-7.063zm9.992 3.846a.698.698 0 00-.694-.698h-7.063a.696.696 0 00-.699.698v3.218a.7.7 0 00.699.698h7.063a.695.695 0 00.694-.698v-3.218zm20.76 0a.698.698 0 00-.696-.698h-7.063a.696.696 0 00-.696.698v3.218c0 .384.313.698.696.698h7.063a.696.696 0 00.696-.698v-3.218zm-9.993-4.613a.699.699 0 00-.699-.697h-7.062a.697.697 0 00-.696.697v7.831c0 .384.313.698.696.698h7.062a.698.698 0 00.699-.698v-7.831zm-31.524.767a.699.699 0 00-.697-.697h-9.364a.696.696 0 00-.699.697v7.063c0 .385.313.698.699.698h9.364a.696.696 0 00.697-.698v-7.063zm-13.069 0a.699.699 0 00-.696-.697h-48.577a.697.697 0 00-.699.697v7.063c0 .385.311.698.699.698h48.577a.697.697 0 00.696-.698v-7.063zm-32.289-3.701a.697.697 0 01-.699.697h-7.062a.695.695 0 01-.696-.697v-7.063c0-.387.311-.696.696-.696h7.062c.386 0 .699.313.699.696v7.063zm9.994 0a.697.697 0 01-.699.697h-7.061a.696.696 0 01-.697-.697v-7.063c0-.387.311-.696.697-.696h7.061c.387 0 .699.313.699.696v7.063zm9.993 0a.697.697 0 01-.695.697h-7.062a.697.697 0 01-.699-.697v-7.063c0-.387.312-.696.699-.696h7.062c.386 0 .695.313.695.696v7.063zm9.996 0a.697.697 0 01-.697.697h-7.063a.694.694 0 01-.697-.697v-7.063c0-.387.312-.696.697-.696h7.063c.386 0 .697.313.697.696v7.063zm9.994 0a.697.697 0 01-.697.697h-7.063a.695.695 0 01-.697-.697v-7.063c0-.387.313-.696.697-.696h7.063c.385 0 .697.313.697.696v7.063zm9.994 0a.697.697 0 01-.697.697h-7.063a.695.695 0 01-.697-.697v-7.063c0-.387.313-.696.697-.696h7.063c.387 0 .697.313.697.696v7.063zm9.997 0a.697.697 0 01-.696.697h-7.063a.695.695 0 01-.698-.697v-7.063c0-.387.312-.696.698-.696h7.063c.385 0 .696.313.696.696v7.063zm26.907-29.984a.698.698 0 01-.696.698h-17.058a.697.697 0 01-.696-.698v-7.062c0-.385.313-.698.696-.698h17.058c.386 0 .696.312.696.698v7.062zM75.058 73.51a.699.699 0 01-.698.698h-7.062a.697.697 0 01-.697-.698v-3.217c0-.385.313-.697.697-.697h7.062c.385 0 .698.312.698.698v3.216zm10.763 0a.699.699 0 01-.699.698h-7.061a.698.698 0 01-.697-.698v-3.217c0-.385.313-.698.697-.698h7.061c.387 0 .699.313.699.698v3.217zm10.763 0a.699.699 0 01-.698.698h-7.062a.698.698 0 01-.697-.698v-3.217c0-.385.313-.698.697-.698h7.062c.385 0 .698.313.698.698v3.217zm10.763 0a.698.698 0 01-.697.698h-7.061a.698.698 0 01-.699-.698v-3.217c0-.385.313-.698.699-.698h7.061c.385 0 .697.313.697.698v3.217zm10.763 0a.698.698 0 01-.697.698h-7.061a.696.696 0 01-.698-.698v-3.217c0-.385.312-.698.698-.698h7.061c.385 0 .697.313.697.698v3.217zm10.763 0a.698.698 0 01-.696.698h-7.062a.698.698 0 01-.699-.698v-3.217c0-.385.312-.698.699-.698h7.062c.385 0 .696.313.696.698v3.217zm10.766 0a.699.699 0 01-.699.698h-7.06a.695.695 0 01-.698-.698v-3.217c0-.385.312-.698.698-.698h7.06c.388 0 .699.313.699.698v3.217zm10.761 0a.698.698 0 01-.697.698h-7.063a.695.695 0 01-.697-.698v-3.217c0-.385.313-.698.697-.698h7.063c.387 0 .697.313.697.698v3.217zm10.764 0a.698.698 0 01-.697.698h-7.063a.695.695 0 01-.697-.698v-3.217c0-.385.313-.698.697-.698h7.063c.386 0 .697.313.697.698v3.217zm10.766 0a.699.699 0 01-.699.698h-7.063a.694.694 0 01-.694-.698v-3.217c0-.385.312-.698.694-.698h7.063c.388 0 .699.313.699.698v3.217zm10.761 0a.698.698 0 01-.697.698h-7.063a.695.695 0 01-.697-.698v-3.217c0-.385.313-.698.697-.698h7.063c.385 0 .697.313.697.698v3.217zm10.764 0a.698.698 0 01-.697.698h-7.063a.697.697 0 01-.697-.698v-3.217c0-.385.313-.698.697-.698h7.063c.386 0 .697.313.697.698v3.217zm10.763 0a.698.698 0 01-.696.698h-7.063a.697.697 0 01-.696-.698v-3.217c0-.385.313-.698.696-.698h7.063c.386 0 .696.313.696.698v3.217z"/><path opacity=".2" fill="#6C7988" d="M219.593 191.066H38.922c-5.938 0-10.764-4.826-10.764-10.769V63.211c-1.691.662-3.734 1.688-3.734 5.704l-.109 114.078c0 7.815 7.302 12.688 13.471 12.688h174.122c4.604 0 8.41-.311 9.102-4.723-.466.065-.934.108-1.417.108z"/><path opacity=".6" fill="#6C7988" d="M9.451 8.09h240.897l-24.093 41.516H32.772z"/><path fill="#6C7988" d="M158.513 213.891v90.405a4.727 4.727 0 01-4.723 4.722H33.495a4.727 4.727 0 01-4.723-4.722v-90.405a4.73 4.73 0 014.723-4.724h120.297a4.728 4.728 0 014.721 4.724zM31.316 304.296c0 1.201.978 2.179 2.179 2.179h120.297a2.181 2.181 0 002.178-2.179v-90.405a2.181 2.181 0 00-2.178-2.179H33.495a2.182 2.182 0 00-2.179 2.179v90.405z"/><path fill="#6C7988" d="M143.886 219.343v78.228H39.584v-78.228h104.302zm-1.271 76.955v-75.682H40.856v75.682h101.759zM37.782 258.563c0 .729-.595 1.324-1.324 1.324-.73 0-1.326-.595-1.326-1.324 0-.73.596-1.324 1.326-1.324a1.323 1.323 0 011.324 1.324zm-2.014 0a.69.69 0 001.377 0 .69.69 0 00-1.377 0zm118.335-.107a4.179 4.179 0 01-4.176 4.175 4.18 4.18 0 01-4.176-4.175 4.183 4.183 0 014.176-4.177 4.181 4.181 0 014.176 4.177zm-7.635 0a3.466 3.466 0 003.462 3.461 3.467 3.467 0 003.46-3.461 3.467 3.467 0 00-3.46-3.461 3.465 3.465 0 00-3.462 3.461z"/><path fill="#6C7988" d="M151.518 257.339v2.234a.473.473 0 01-.474.473h-2.234a.474.474 0 01-.475-.473v-2.234c0-.26.213-.473.475-.473h2.234c.262 0 .474.213.474.473zm-.638 2.072v-1.908h-1.906v1.908h1.906z"/><path fill="#6C7988" d="M29.09 302.389l-.002-86.226h.271a3.45 3.45 0 00-3.449 3.448v88.252c0 2.386 2.066 4.97 5.764 4.97h114.805c1.903 0 3.449-1.91 3.449-3.815v-1.906H33.812a4.73 4.73 0 01-4.722-4.723z" opacity=".2"/><path fill="#6C7988" d="M226.162 290.424h-39.695v-67.529c0-.973.56-1.526 1.527-1.526h36.644c.971 0 1.526.557 1.526 1.526l-.002 67.529zm-38.993-.705h38.287v-66.824c0-.584-.238-.822-.822-.822h-36.643c-.584 0-.82.238-.82.822l-.002 66.824zm19.204 10.258a4.292 4.292 0 01-4.285-4.287c0-2.36 1.922-4.283 4.285-4.283s4.287 1.923 4.287 4.283a4.292 4.292 0 01-4.287 4.287zm0-7.872a3.584 3.584 0 00-3.58 3.584 3.585 3.585 0 003.58 3.582 3.584 3.584 0 003.582-3.582 3.587 3.587 0 00-3.582-3.584z"/><path fill="#6C7988" d="M207.068 297.473h-1.51a1.009 1.009 0 01-1.006-1.01v-1.508c0-.561.451-1.01 1.006-1.01h1.51c.557 0 1.006.453 1.006 1.01v1.508a1.008 1.008 0 01-1.006 1.01zm-1.51-2.823a.306.306 0 00-.303.305v1.508c0 .171.137.307.303.307h1.51a.306.306 0 00.303-.307v-1.508a.305.305 0 00-.303-.305h-1.51z"/><circle fill="#6C7988" cx="206.138" cy="214.146" r=".88"/><circle fill="#6C7988" cx="200.433" cy="217.717" r=".578"/><path fill="#6C7988" d="M209.417 217.139h-6.599c-.34 0-.614.247-.614.588 0 .342.274.586.614.586h6.599c.34 0 .615-.244.615-.586.001-.341-.275-.588-.615-.588zm-6.041 6.519h-.15v-.99l-.299.109v-.135l.426-.16h.023v1.176zm1.168-.5c0 .174-.031.303-.092.389-.058.084-.148.127-.275.127-.125 0-.217-.04-.277-.125-.059-.081-.092-.203-.094-.367v-.199c0-.172.031-.299.09-.381.059-.084.152-.127.279-.127.125 0 .217.041.277.121.061.078.088.203.092.373v.189zm-.148-.203a.532.532 0 00-.053-.273c-.035-.059-.092-.086-.168-.086s-.131.027-.166.086a.523.523 0 00-.055.266v.236c0 .127.02.221.055.279.037.063.092.092.168.092a.178.178 0 00.162-.086.554.554 0 00.055-.27l.002-.244zm.348.625a.1.1 0 01.023-.063c.016-.021.037-.023.07-.023.024 0 .053.008.063.023.021.018.022.037.022.063 0 .023-.006.045-.022.063s-.039.022-.063.022c-.033 0-.058-.008-.07-.022a.106.106 0 01-.023-.063zm.002-.711c0-.021.01-.047.021-.063.018-.019.039-.023.07-.023.024 0 .053.01.065.023.021.02.022.039.022.063s-.008.047-.022.063c-.014.018-.041.024-.065.024-.031 0-.058-.008-.07-.024a.092.092 0 01-.021-.063zm.603.131h.111a.24.24 0 00.164-.059.185.185 0 00.061-.146c0-.137-.068-.204-.205-.204-.063 0-.115.018-.154.055s-.057.086-.057.146h-.146c0-.094.031-.17.104-.229a.355.355 0 01.258-.094c.111 0 .197.028.261.088a.32.32 0 01.094.243.263.263 0 01-.049.146.292.292 0 01-.136.104.288.288 0 01.147.102.29.29 0 01.054.175.32.32 0 01-.104.25.38.38 0 01-.271.092.393.393 0 01-.269-.09.302.302 0 01-.104-.233h.148c0 .063.02.11.061.147a.246.246 0 00.162.057c.072 0 .127-.021.164-.059.039-.035.059-.091.059-.16a.196.196 0 00-.063-.155.287.287 0 00-.184-.058h-.109l.003-.118zm1.44.158c0 .174-.026.303-.088.389-.061.084-.152.127-.279.127-.123 0-.217-.04-.274-.125-.06-.081-.09-.203-.094-.367v-.199c0-.172.026-.299.09-.381.06-.084.151-.127.278-.127.125 0 .218.041.275.121.061.078.092.203.092.373v.189zm-.149-.203a.532.532 0 00-.053-.273c-.035-.059-.092-.086-.168-.086s-.133.027-.168.086a.555.555 0 00-.056.266v.236c0 .127.021.221.058.279.035.063.092.092.166.092s.129-.029.164-.086a.554.554 0 00.055-.27l.002-.244zm1.43.397h-.49l-.111.308h-.155l.444-1.17h.138l.444 1.17h-.155l-.115-.308zm-.444-.125h.397l-.2-.549-.197.549zm1.071-.739l.381.953.383-.953h.201v1.17h-.154v-.455l.017-.492-.385.947h-.115l-.385-.945.017.49v.455h-.15v-1.17h.19z"/><path fill="#6C7988" d="M228.98 228.426v-12.648a6.864 6.864 0 00-6.857-6.858H190.74c-3.779 0-6.857 3.076-6.857 6.858v5.837a.821.821 0 00-.704.811v3.761c0 .412.307.752.704.813v1.195a.824.824 0 00-.704.813v5.401c0 .413.307.753.704.812v1.197a.825.825 0 00-.704.813v5.4c0 .414.307.754.704.813v52.347c0 3.78 3.078 6.856 6.857 6.856h31.381c3.783 0 6.859-3.074 6.859-6.856v-60.332a.822.822 0 00.705-.812v-5.402a.822.822 0 00-.705-.819zm-.938 67.353a5.926 5.926 0 01-5.922 5.92h-31.38a5.925 5.925 0 01-5.918-5.92v-79.996a5.924 5.924 0 015.918-5.92h31.381a5.927 5.927 0 015.922 5.92v79.996h-.001z"/><path d="M188.111 223.441h.469v.272h-.469zm.705-.195h.469v.472h-.469zm2.113-.705h.469v1.174h-.469zm-1.408.471h.469v.703h-.469zm.703-.237h.471v.938h-.471zm31.24-.234v1.174h2.584v-.235h.471v-.705h-.471v-.234z" fill="#6C7988"/><path opacity=".2" fill="#6C7988" d="M222.121 302.639H190.74a6.865 6.865 0 01-6.857-6.859v-80.002c0-1.305.365-2.522 1-3.563-2.262 1.123-3.112 2.281-3.112 4.971v80.002c0 3.783 3.076 7.328 6.858 7.328h31.381c2.48 0 3.947-.615 5.152-2.592a6.824 6.824 0 01-3.041.715z"/></svg>