<svg xmlns="http://www.w3.org/2000/svg" width="260" height="195.682"><path fill="#6C7988" d="M158.257 179.535h-55.689a1.373 1.373 0 01-1.371-1.371v-39.543c0-.756.615-1.371 1.371-1.371h55.689a1.37 1.37 0 011.369 1.371v39.543a1.37 1.37 0 01-1.369 1.371zm-55.524-1.537h55.355v-39.21h-55.355v39.21zm-50.741-53.049H35.846V69.595h16.146v55.354zm-14.607-1.537h13.07V71.133h-13.07v52.279zm186.822 1.537h-16.146V69.595h16.146v55.354zm-14.605-1.537h13.067V71.133h-13.067v52.279z"/><path fill="#6C7988" d="M256.449 5.402c-.943-1.785-3.122-2.692-6.488-2.692l-66.018.001H12.07s-.135-.005-.367-.005c-1.914 0-6.532.302-8.105 3.097-.865 1.537-.654 3.389.632 5.506L28.303 50.77c.282.499 1.415 2.048 4.758 2.892-2.947 1.922-4.902 5.241-4.902 9.016v117.629c0 5.938 4.826 10.764 10.764 10.764h180.671c5.938 0 10.766-4.825 10.766-10.764V62.676c0-3.672-1.854-6.917-4.666-8.86 2.178-.717 5.611-2.685 9.188-8.049 5.288-7.932 19.824-32.864 20.743-34.44.348-.527 2.139-3.436.824-5.925zm-145.694 182.59a3.843 3.843 0 013.512-2.309h30.752c1.569 0 2.918.953 3.514 2.309h-37.778zM227.282 62.676v117.629c0 4.237-3.449 7.688-7.688 7.688h-69.419a5.39 5.39 0 00-5.155-3.846h-30.75a5.386 5.386 0 00-5.154 3.846h-70.19c-4.24 0-7.688-3.449-7.688-7.688V62.676c0-4.239 3.447-7.688 7.688-7.688h13.109a1.959 1.959 0 00-.039.386v1.538c0 1.06.861 1.922 1.922 1.922h149.919a1.923 1.923 0 001.923-1.922v-1.538c0-.132-.014-.262-.038-.386H219.6c4.232 0 7.682 3.448 7.682 7.688zm-22.296-7.304v1.538c0 .636-.52 1.151-1.152 1.151H53.914a1.154 1.154 0 01-1.153-1.151v-1.538c0-.138.028-.266.071-.386h152.083c.044.122.071.25.071.386zm19.118-9.61H35.979L16.583 11.165h228.11l-20.589 34.597z"/><path fill="#6C7988" d="M64.293 73.51a.699.699 0 01-.698.698h-7.061a.697.697 0 01-.697-.698v-3.217c0-.385.313-.697.697-.697h7.061c.387 0 .698.313.698.698v3.216zm0 9.994a.699.699 0 01-.698.698h-7.061a.697.697 0 01-.697-.698v-7.063c0-.385.313-.696.697-.696h7.061c.387 0 .698.312.698.696v7.063zm9.994 0a.698.698 0 01-.696.698h-7.062a.699.699 0 01-.699-.698v-7.063c0-.385.313-.696.699-.696h7.062c.385 0 .696.312.696.696v7.063zm9.996 0a.699.699 0 01-.698.698h-7.061a.699.699 0 01-.698-.698v-7.063c0-.385.313-.696.698-.696h7.061c.385 0 .698.312.698.696v7.063zm9.995 0a.699.699 0 01-.699.698h-7.061a.698.698 0 01-.697-.698v-7.063c0-.385.313-.696.697-.696h7.061c.387 0 .699.312.699.696v7.063zm9.994 0a.699.699 0 01-.698.698h-7.062a.696.696 0 01-.697-.698v-7.063c0-.385.311-.696.697-.696h7.062c.386 0 .698.312.698.696v7.063zm9.995 0a.698.698 0 01-.697.698h-7.061a.696.696 0 01-.699-.698v-7.063c0-.385.311-.696.699-.696h7.061c.385 0 .697.312.697.696v7.063zm9.994 0a.698.698 0 01-.697.698h-7.061a.697.697 0 01-.699-.698v-7.063c0-.385.312-.696.699-.696h7.061c.385 0 .697.312.697.696v7.063zm9.996 0a.699.699 0 01-.698.698h-7.063a.696.696 0 01-.696-.698v-7.063c0-.385.311-.696.696-.696h7.063c.385 0 .698.312.698.696v7.063zm9.993 0a.699.699 0 01-.698.698h-7.061a.695.695 0 01-.698-.698v-7.063c0-.385.313-.696.698-.696h7.061c.386 0 .698.312.698.696v7.063zm9.994 0a.698.698 0 01-.696.698h-7.062a.696.696 0 01-.699-.698v-7.063c0-.385.313-.696.699-.696h7.062c.386 0 .696.312.696.696v7.063zm9.994 0a.698.698 0 01-.696.698h-7.062a.694.694 0 01-.697-.698v-7.063c0-.385.313-.696.697-.696h7.062c.385 0 .696.312.696.696v7.063zm9.996 0a.699.699 0 01-.698.698h-7.062a.695.695 0 01-.697-.698v-7.063c0-.385.312-.696.697-.696h7.062c.385 0 .698.312.698.696v7.063zm9.995 0a.699.699 0 01-.699.698h-7.061a.696.696 0 01-.697-.698v-7.063c0-.385.313-.696.697-.696h7.061c.389 0 .699.312.699.696v7.063zm-69.962 9.994a.696.696 0 01-.697.696h-7.061a.696.696 0 01-.699-.696v-7.063c0-.385.311-.696.699-.696h7.061c.385 0 .697.312.697.696v7.063zm-9.995 0a.696.696 0 01-.698.696h-7.062a.695.695 0 01-.697-.696v-7.063c0-.385.311-.696.697-.696h7.062c.386 0 .698.312.698.696v7.063zm-9.994 0a.697.697 0 01-.699.696h-7.061a.697.697 0 01-.697-.696v-7.063c0-.385.313-.696.697-.696h7.061c.387 0 .699.312.699.696v7.063zm-9.995 0a.696.696 0 01-.698.696h-7.061a.698.698 0 01-.698-.696v-7.063c0-.385.313-.696.698-.696h7.061c.385 0 .698.312.698.696v7.063zm-9.996 0a.696.696 0 01-.696.696H56.534a.697.697 0 01-.697-.696v-7.063c0-.385.313-.696.697-.696h17.057c.385 0 .696.312.696.696v7.063zm1.538 9.995a.696.696 0 01-.697.696H56.534a.697.697 0 01-.697-.696V96.43c0-.386.313-.698.697-.698h18.594c.385 0 .697.313.697.698v7.063zm1.539 9.995a.696.696 0 01-.699.697h-20.13a.698.698 0 01-.698-.697v-7.062c0-.387.313-.698.698-.698h20.13c.387 0 .699.313.699.698v7.062zm8.457-9.995a.697.697 0 01-.699.696h-7.061a.697.697 0 01-.697-.696V96.43c0-.386.313-.698.697-.698h7.061c.387 0 .699.313.699.698v7.063zm38.44-9.995a.696.696 0 01-.697.696h-7.061a.697.697 0 01-.699-.696v-7.063c0-.385.312-.696.699-.696h7.061c.385 0 .697.312.697.696v7.063zm9.996 0a.696.696 0 01-.698.696h-7.063a.695.695 0 01-.696-.696v-7.063c0-.385.311-.696.696-.696h7.063c.385 0 .698.312.698.696v7.063zm9.993 0a.696.696 0 01-.698.696h-7.061a.695.695 0 01-.698-.696v-7.063c0-.385.313-.696.698-.696h7.061c.386 0 .698.312.698.696v7.063zm9.994 0a.696.696 0 01-.696.696h-7.062a.695.695 0 01-.699-.696v-7.063c0-.385.313-.696.699-.696h7.062c.386 0 .696.312.696.696v7.063zm9.994 0a.696.696 0 01-.696.696h-7.062a.694.694 0 01-.697-.696v-7.063c0-.385.313-.696.697-.696h7.062c.385 0 .696.312.696.696v7.063zm9.996 0a.696.696 0 01-.698.696h-7.062a.695.695 0 01-.697-.696v-7.063c0-.385.312-.696.697-.696h7.062c.385 0 .698.312.698.696v7.063zm9.995 0a.697.697 0 01-.699.696h-7.061a.695.695 0 01-.697-.696v-7.063c0-.385.313-.696.697-.696h7.061c.389 0 .699.312.699.696v7.063zm9.996 0a.697.697 0 01-.699.696h-7.062a.696.696 0 01-.696-.696v-7.063c0-.385.313-.696.696-.696h7.062c.389 0 .699.312.699.696v7.063zm9.993 0a.696.696 0 01-.696.696h-7.063a.697.697 0 01-.697-.696v-7.063c0-.385.313-.696.697-.696h7.063c.387 0 .696.312.696.696v7.063zm-108.403 9.995a.696.696 0 01-.698.696h-7.062a.697.697 0 01-.697-.696V96.43c0-.386.313-.698.697-.698h7.062c.386 0 .698.313.698.698v7.063zm9.995 0a.696.696 0 01-.697.696h-7.061a.697.697 0 01-.699-.696V96.43c0-.386.312-.698.699-.698h7.061c.385 0 .697.313.697.698v7.063zm9.994 0a.696.696 0 01-.697.696h-7.061a.697.697 0 01-.699-.696V96.43c0-.386.313-.698.699-.698h7.061c.385 0 .697.313.697.698v7.063zm9.996 0a.697.697 0 01-.699.696h-7.062a.695.695 0 01-.696-.696V96.43c0-.386.311-.698.696-.698h7.062c.386 0 .699.313.699.698v7.063zm9.993 0a.696.696 0 01-.697.696h-7.062a.695.695 0 01-.697-.696V96.43c0-.386.311-.698.697-.698h7.062c.387 0 .697.313.697.698v7.063zm9.994 0a.696.696 0 01-.696.696h-7.062a.695.695 0 01-.699-.696V96.43c0-.386.313-.698.699-.698h7.062c.386 0 .696.313.696.698v7.063zm9.996 0a.696.696 0 01-.698.696h-7.062a.694.694 0 01-.697-.696V96.43c0-.386.313-.698.697-.698h7.062c.386 0 .698.313.698.698v7.063zm9.994 0a.696.696 0 01-.698.696h-7.062a.695.695 0 01-.697-.696V96.43c0-.386.312-.698.697-.698h7.062c.385 0 .698.313.698.698v7.063zm9.994 0a.696.696 0 01-.698.696h-7.063a.694.694 0 01-.695-.696V96.43c0-.386.312-.698.695-.698h7.063c.386 0 .698.313.698.698v7.063zm9.997 0a.697.697 0 01-.699.696h-7.06a.695.695 0 01-.698-.696V96.43c0-.386.313-.698.698-.698h7.06c.389 0 .699.313.699.698v7.063zm18.45 0a.696.696 0 01-.696.696h-15.519a.698.698 0 01-.698-.696V96.43c0-.386.313-.698.698-.698h15.519c.387 0 .696.313.696.698v7.063zm0 9.995a.695.695 0 01-.696.697h-23.976a.698.698 0 01-.698-.697v-7.062c0-.387.313-.698.698-.698h23.976c.387 0 .696.313.696.698v7.062zm-116.86 0a.696.696 0 01-.698.697h-7.062a.698.698 0 01-.697-.697v-7.062c0-.387.313-.698.697-.698h7.062c.386 0 .698.313.698.698v7.062zm9.995 0a.696.696 0 01-.697.697h-7.061a.698.698 0 01-.699-.697v-7.062c0-.387.313-.698.699-.698h7.061c.385 0 .697.313.697.698v7.062zm9.994 0a.696.696 0 01-.697.697h-7.061a.697.697 0 01-.699-.697v-7.062c0-.387.313-.698.699-.698h7.061c.385 0 .697.313.697.698v7.062zm-43.054 10.763a.698.698 0 01-.698.698h-7.061a.697.697 0 01-.697-.698v-7.063c0-.385.313-.695.697-.695h7.061c.387 0 .698.311.698.695v7.063zm9.994 0a.698.698 0 01-.696.698h-7.062a.699.699 0 01-.699-.698v-7.063c0-.385.313-.695.699-.695h7.062c.385 0 .696.311.696.695v7.063zm9.996 0a.698.698 0 01-.698.698h-7.061a.699.699 0 01-.698-.698v-7.063c0-.385.313-.695.698-.695h7.061c.385 0 .698.311.698.695v7.063zm13.07 0a.698.698 0 01-.697.698h-9.367a.698.698 0 01-.697-.698v-7.063c0-.385.313-.695.697-.695h9.367c.385 0 .697.311.697.695v7.063zm76.113-7.062a.697.697 0 00-.698-.695h-7.062a.695.695 0 00-.697.695v7.063c0 .385.312.698.697.698h7.062a.697.697 0 00.698-.698v-7.063zm9.993 3.846a.697.697 0 00-.695-.698h-7.063a.696.696 0 00-.699.698v3.218a.7.7 0 00.699.698h7.063a.696.696 0 00.695-.698v-3.218zm20.759 0a.697.697 0 00-.696-.698h-7.063a.697.697 0 00-.697.698v3.218a.7.7 0 00.697.698h7.063a.696.696 0 00.696-.698v-3.218zm-9.993-4.613a.699.699 0 00-.699-.697h-7.062a.697.697 0 00-.696.697v7.831c0 .384.313.698.696.698h7.062a.697.697 0 00.699-.698v-7.831zm-31.524.767a.697.697 0 00-.698-.695h-9.364a.696.696 0 00-.699.695v7.063c0 .385.313.698.699.698h9.364a.697.697 0 00.698-.698v-7.063zm-13.069 0a.697.697 0 00-.696-.695h-48.577a.696.696 0 00-.699.695v7.063c0 .385.311.698.699.698h48.577a.697.697 0 00.696-.698v-7.063zm-32.289-3.701a.696.696 0 01-.699.697h-7.062a.695.695 0 01-.696-.697v-7.062c0-.387.311-.698.696-.698h7.062c.386 0 .699.313.699.698v7.062zm9.994 0a.696.696 0 01-.699.697h-7.061a.696.696 0 01-.697-.697v-7.062c0-.387.311-.698.697-.698h7.061c.387 0 .699.313.699.698v7.062zm9.993 0a.695.695 0 01-.696.697h-7.062a.697.697 0 01-.699-.697v-7.062c0-.387.312-.698.699-.698h7.062c.386 0 .696.313.696.698v7.062zm9.995 0a.696.696 0 01-.697.697h-7.062a.695.695 0 01-.698-.697v-7.062c0-.387.312-.698.698-.698h7.062c.386 0 .697.313.697.698v7.062zm9.995 0a.696.696 0 01-.698.697h-7.062a.695.695 0 01-.697-.697v-7.062c0-.387.312-.698.697-.698h7.062c.385 0 .698.313.698.698v7.062zm9.994 0a.696.696 0 01-.697.697h-7.063a.694.694 0 01-.697-.697v-7.062c0-.387.312-.698.697-.698h7.063c.386 0 .697.313.697.698v7.062zm9.997 0a.695.695 0 01-.695.697h-7.063a.695.695 0 01-.698-.697v-7.062c0-.387.313-.698.698-.698h7.063c.385 0 .695.313.695.698v7.062zm26.907-29.984a.698.698 0 01-.696.698h-17.058a.697.697 0 01-.696-.698v-7.063c0-.385.313-.696.696-.696h17.058c.387 0 .696.312.696.696v7.063zM75.058 73.51a.699.699 0 01-.698.698h-7.062a.697.697 0 01-.697-.698v-3.217c0-.385.313-.697.697-.697h7.062c.385 0 .698.313.698.698v3.216zm10.763 0a.699.699 0 01-.699.698h-7.061a.698.698 0 01-.697-.698v-3.217c0-.385.313-.698.697-.698h7.061c.387 0 .699.313.699.698v3.217zm10.763 0a.699.699 0 01-.698.698h-7.062a.698.698 0 01-.697-.698v-3.217c0-.385.313-.698.697-.698h7.062c.385 0 .698.313.698.698v3.217zm10.763 0a.698.698 0 01-.697.698h-7.061a.698.698 0 01-.699-.698v-3.217c0-.385.313-.698.699-.698h7.061c.385 0 .697.313.697.698v3.217zm10.763 0a.698.698 0 01-.697.698h-7.061a.696.696 0 01-.698-.698v-3.217c0-.385.312-.698.698-.698h7.061c.385 0 .697.313.697.698v3.217zm10.763 0a.698.698 0 01-.696.698h-7.062a.698.698 0 01-.699-.698v-3.217c0-.385.312-.698.699-.698h7.062c.385 0 .696.313.696.698v3.217zm10.766 0a.699.699 0 01-.699.698h-7.06a.695.695 0 01-.698-.698v-3.217c0-.385.313-.698.698-.698h7.06c.389 0 .699.313.699.698v3.217zm10.761 0a.698.698 0 01-.697.698h-7.063a.695.695 0 01-.697-.698v-3.217c0-.385.312-.698.697-.698h7.063c.386 0 .697.313.697.698v3.217zm10.764 0a.699.699 0 01-.698.698h-7.062a.695.695 0 01-.697-.698v-3.217c0-.385.313-.698.697-.698h7.062c.386 0 .698.313.698.698v3.217zm10.766 0a.699.699 0 01-.699.698h-7.063a.695.695 0 01-.695-.698v-3.217c0-.385.313-.698.695-.698h7.063c.388 0 .699.313.699.698v3.217zm10.761 0a.699.699 0 01-.698.698h-7.062a.695.695 0 01-.697-.698v-3.217c0-.385.312-.698.697-.698h7.062c.385 0 .698.313.698.698v3.217zm10.763 0a.698.698 0 01-.697.698h-7.062a.697.697 0 01-.698-.698v-3.217c0-.385.313-.698.698-.698h7.062c.386 0 .697.313.697.698v3.217zm10.764 0a.698.698 0 01-.696.698h-7.063a.698.698 0 01-.697-.698v-3.217c0-.385.313-.698.697-.698h7.063c.387 0 .696.313.696.698v3.217z"/><path opacity=".2" fill="#6C7988" d="M219.594 191.066H38.922c-5.938 0-10.764-4.824-10.764-10.765V63.211c-1.691.662-3.734 1.688-3.734 5.704l-.109 114.078c0 7.813 7.302 12.688 13.471 12.688h174.121c4.604 0 8.411-.307 9.103-4.719a10.86 10.86 0 01-1.416.104z"/><path opacity=".6" fill="#6C7988" d="M9.451 8.09h240.897l-24.092 41.516H32.772z"/></svg>