<svg xmlns="http://www.w3.org/2000/svg" width="119" height="195.988"><path fill="#6C7988" d="M54.345 96.152H42.468a2.56 2.56 0 01-2.558-2.56v-3.148c0-1.41 1.146-2.56 2.558-2.56h11.877a2.562 2.562 0 012.559 2.56v3.148a2.562 2.562 0 01-2.559 2.56zm-11.877-7.35c-.904 0-1.64.736-1.64 1.641v3.149c0 .904.736 1.641 1.64 1.641h11.877c.904 0 1.642-.735 1.642-1.641v-3.149c0-.904-.737-1.641-1.642-1.641H42.468zm9.104 11.484H44.78a1.652 1.652 0 01-1.653-1.559h-.002l.005-.1c.067-.894.78-1.558 1.65-1.558h6.792c.883 0 1.603.683 1.655 1.558h.002l-.005.1c-.068.894-.781 1.559-1.652 1.559zm-7.529-1.589c.016.359.34.67.737.67h6.792a.736.736 0 00.738-.708c-.017-.36-.34-.67-.738-.67H44.78a.736.736 0 00-.737.708zm-1.837-55.368h13.78v2.297h-13.78zm52.823 98.297h11.021v1.838H95.029zm-73.794 32.61h-3.533a3.058 3.058 0 01-3.056-3.058V160.3a3.058 3.058 0 013.056-3.055h3.533a3.056 3.056 0 013.057 3.055v10.883a3.057 3.057 0 01-3.057 3.053zm-3.534-16.075a2.14 2.14 0 00-2.136 2.139v10.883a2.14 2.14 0 002.136 2.139h3.534a2.14 2.14 0 002.138-2.139V160.3a2.142 2.142 0 00-2.138-2.139h-3.534z"/><circle fill="#6C7988" cx="25.985" cy="142.86" r="1.693"/><circle fill="#6C7988" cx="72.838" cy="150.669" r="1.695"/><circle fill="#6C7988" cx="79.268" cy="150.669" r="1.695"/><circle fill="#6C7988" cx="85.697" cy="150.669" r="1.695"/><circle fill="#6C7988" cx="95.512" cy="150.836" r=".941"/><circle fill="#6C7988" cx="22.771" cy="147.913" r="1.692"/><circle fill="#6C7988" cx="25.985" cy="152.966" r="1.693"/><path fill="#6C7988" d="M101.419 174.236H73.021a1.88 1.88 0 01-1.877-1.877V159.12a1.88 1.88 0 011.877-1.877h28.396a1.88 1.88 0 011.878 1.877v13.239a1.876 1.876 0 01-1.876 1.877zm-28.398-16.075a.962.962 0 00-.959.961v13.237c0 .529.43.959.959.959h28.396c.526 0 .959-.43.959-.959v-13.237a.963.963 0 00-.959-.961H73.021zm27.519-19.75a5.981 5.981 0 01-5.972-5.974 5.982 5.982 0 015.972-5.973 5.983 5.983 0 015.974 5.973 5.982 5.982 0 01-5.974 5.974zm0-11.026a5.06 5.06 0 00-5.052 5.055 5.059 5.059 0 005.052 5.054 5.06 5.06 0 005.053-5.054 5.058 5.058 0 00-5.053-5.055zm-13.447 10.864a2.665 2.665 0 01-1.893-.785l-4.552-4.551 3.789-3.789.323.324s4.177 4.18 4.226 4.227a2.685 2.685 0 010 3.789 2.654 2.654 0 01-1.893.785zm-5.146-5.336l3.871 3.871c.363.36.804.545 1.271.545.473 0 .912-.185 1.244-.517a1.756 1.756 0 000-2.487c-.006-.005-1.313-1.318-3.896-3.904l-2.49 2.492z"/><circle fill="#6C7988" cx="87.064" cy="135.559" r="1.19"/><path fill="#6C7988" d="M53.237 176.075h-10.58a1.83 1.83 0 01-1.829-1.828v-10.58c0-1.01.82-1.83 1.829-1.83h10.579c1.01 0 1.83.82 1.83 1.83v10.58a1.83 1.83 0 01-1.829 1.828zm-10.58-13.32a.913.913 0 00-.911.912v10.58c0 .502.408.91.911.91h10.579a.911.911 0 00.911-.91v-10.58a.911.911 0 00-.911-.912H42.657z"/><path fill="#6C7988" d="M48.095 165.581c-1.065 1.242-2.55 2.662-2.55 3.981 0 .777.536 1.478.795 1.904v2.313h3.215v-2.31c.459-.438.938-1.13.938-1.907 0-1.319-1.392-2.796-2.398-3.981zm-.07 4.92a1.118 1.118 0 11.001-2.235 1.118 1.118 0 01-.001 2.235z"/><circle fill="#6C7988" cx="47.98" cy="163.917" r=".703"/><path fill="#6C7988" d="M27.967 133.357v-3.604l-.848.002-2.367-3.746H67.01v-.92H25.67v-4.592h-3.216v7.349l2.298 4.663v.848zm20.44 55.32c-7.579.063-18.638 2.559-19.81 2.559-1.173 0-2.468-.95-2.468-2.123v-4.77h-4.46c-6.924 0-13.454-6.529-13.454-13.451v-25.916c0-2.598.918-4.877 2.429-6.717C7.313 140.279 5 143.607 5 147.73v25.912c0 6.926 6.531 13.457 13.454 13.457h4.46v6.767c0 1.172 1.295 2.122 2.468 2.122s12.231-2.495 19.81-2.555c7.58-.059 19.235 2.555 19.235 2.555 1.173 0 1.664-2.95 1.664-4.122v-.962c-3.422-.698-11.787-2.27-17.684-2.227zm-19.981-170s1.071-3.903 1.914-9.34c.073-.466.188-.879.334-1.251-1.586.431-3.161 1.502-3.55 4.008-.842 5.437-1.915 9.34-1.915 9.34s-.063.388-.23.91c2.749.511 3.447-3.667 3.447-3.667zm73.359 165.669H69.307v2.756H98.57c3.463 0 6.367-1.637 8.406-4.135a10.336 10.336 0 01-5.191 1.379zM21.708 48.101s.797 2.725 3.044 3.647v5.359h-2.298v53.973l3.216 3.442v3.216h3.215v-5.972l-3.215-3.442V54.353h2.298v-5.359c-2.247-.923-3.044-3.646-3.044-3.646s-6.144-17.506-7.579-20.95c-.516-1.238-.828-2.217-.96-3.014-.647-.327-1.529-.578-2.256-.073-1.32.918-1.436 2.396 0 5.842s7.579 20.948 7.579 20.948z" opacity=".2"/><path fill="#6C7988" d="M101.785 120.693H90.566c-5.813 0-8.713 3.591-11.274 6.757-2.054 2.536-3.825 4.729-6.771 4.729h-2.955v-3.134l1.436-2.774h.402v-9.709h-2.756v-4.379l2.756-3.445V53.173h-3.479V50.48h.575c4.122 0 5.563-4.276 5.716-4.772.273-.77 6.166-17.327 7.55-20.643 1.086-2.605 2.02-5.813-.418-7.507a2.804 2.804 0 00-1.634-.503c-1.491 0-2.813 1.078-2.938 1.182 0 0-.854.682-2.842 2.33-.51.341-.967.521-1.324.521-1.146 0-1.756-2.231-1.854-2.828l-.031-.14c-.012-.036-1.061-3.663-1.879-8.961-.521-3.349-3.01-5.27-6.826-5.27-.818 0-1.455.091-1.722.136H37.719c-.265-.045-.9-.136-1.719-.136-3.818 0-6.306 1.921-6.825 5.27-.82 5.298-1.874 9.17-1.886 9.208l-.025.114c-.099.578-.701 2.731-1.829 2.731-.364 0-.83-.183-1.353-.531-1.94-1.608-2.798-2.351-2.81-2.361-.147-.126-1.479-1.233-2.982-1.233-.599 0-1.143.168-1.618.499-2.215 1.541-1.768 4.019-.415 7.265 1.381 3.315 7.283 20.114 7.546 20.861.128.414 1.219 3.654 4.164 4.54v2.922H24.49v55.617l3.216 3.442v4.328H24.49v9.709h.426l1.87 2.959v2.947H21.67c-7.193 0-14.634 4.785-14.634 12.799v25.914c0 7.521 7.111 14.635 14.634 14.635h3.28v3.586c0 1.947 1.922 3.304 3.647 3.304.423 0 1.275-.148 3.337-.519 4.179-.746 11.175-1.996 16.48-2.037h.243c7.362 0 18.612 2.5 18.726 2.525l.258.027c1.729 0 2.844-1.298 2.844-3.304v-3.586h31.304c8.01 0 12.796-7.44 12.796-14.636V133.49c-.003-7.534-5.267-12.797-12.8-12.797zm-33.267-65.16h.526v15.815h-.526V55.533zm0 20.868h.526v7.548h-.526v-7.548zm-42.46-31.384l-.02-.062c-.252-.716-6.172-17.576-7.604-21.013-1.521-3.651-.856-4.114-.415-4.421a.427.427 0 01.27-.076c.498 0 1.19.448 1.441.66.035.031.894.773 2.891 2.429l.088.066c.945.644 1.863.971 2.726.971 2.631 0 3.837-2.887 4.146-4.639.141-.522 1.128-4.266 1.926-9.414.336-2.17 1.848-3.271 4.492-3.271.797 0 1.379.112 1.382.113l.115.022h22.912l.23-.022c.008-.001.586-.114 1.383-.114 2.646 0 4.158 1.101 4.494 3.271.793 5.111 1.771 8.646 1.928 9.19.312 1.794 1.522 4.735 4.172 4.735.855 0 1.764-.323 2.697-.96l.088-.065c1.99-1.649 2.849-2.336 2.879-2.36.238-.202.934-.646 1.438-.646.15 0 .231.043.285.08.324.226 1.186.824-.413 4.663-1.433 3.435-7.353 20.08-7.604 20.787l-.02.062c-.038.127-.96 3.115-3.463 3.115H29.519c-2.503.003-3.424-2.978-3.461-3.101zm38.326 26.331V55.533h2.954v15.815h-2.954zm2.954 5.053v7.548h-2.954v-7.548h2.954zm-7.218-5.053V55.533h3.084v15.815H60.12zm3.084 5.053v7.548H60.12v-7.548h3.084zm-7.218-5.053V55.533H59.2v15.815h-3.214zm3.214 5.053v7.548h-3.214v-7.548H59.2zm-8.497-2.297c-.126 0-.229-.087-.229-.196v-.068c0-.106.103-.195.229-.195h4.594c.127 0 .229.087.229.195v.068c0 .108-.103.196-.229.196h-4.594zm4.363 2.297v7.548h-3.674v-7.548h3.674zm-3.673-5.053V55.533h3.674v15.815h-3.674zM38.76 74.104c-.126 0-.229-.087-.229-.196v-.068c0-.106.103-.195.229-.195h4.594c.127 0 .229.087.229.195v.068c0 .108-.103.196-.229.196H38.76zm2.526 2.297v7.548h-3.215v-7.548h3.215zm-3.215-5.053V55.533h3.215v15.815h-3.215zm4.135 0V55.533h4.134v15.815h-4.134zm0 5.053h4.134v7.548h-4.134v-7.548zm2.525-2.297c-.126 0-.229-.087-.229-.196v-.068c0-.106.103-.195.229-.195h4.594c.126 0 .229.087.229.195v.068c0 .108-.104.196-.229.196h-4.594zm2.527 2.297h3.217v7.548h-3.217v-7.548zm0-5.053V55.533h3.217v15.815h-3.217zm-14.109 0V55.533h4.003v15.815h-4.003zm4.003 5.053v7.548h-4.003v-7.548h4.003zm-8.136-5.053V55.533h2.955v15.815h-2.955zm2.955 5.053v7.548h-2.955v-7.548h2.955zM26.85 55.533h.986v15.815h-.986V55.533zm0 20.868h.986v7.548h-.986v-7.548zm0 9.907h42.194v21.327H26.85V86.308zm.648 22.247h41.031l-1.627 2.035H29.398l-1.9-2.035zm38.791 4.395v3.61H30.065v-3.61h36.224zm-39.439 5.971h42.194v4.988H26.85v-4.988zm2.296 11.943h38.063v1.313H29.146v-1.313zm-4.058 52.301H21.67c-6.31 0-12.275-5.965-12.275-12.273v-25.914c0-6.447 6.372-10.438 12.275-10.438h9.97v35.105c.001 9.168-3.836 12.387-6.552 13.52zm42.654 6.883c-1.463-.32-11.855-2.549-19.084-2.549h-.261c-5.507.043-12.625 1.313-16.878 2.074-1.303.231-2.649.473-2.922.479-.591 0-1.289-.513-1.289-.942v-3.586h40.817v3.586c.001.766-.221.911-.383.938zm-40.811-6.883c2.702-1.748 5.63-5.494 5.63-13.521v-35.106h30.774v35.106c0 8.023 2.927 11.771 5.629 13.521H26.931zm85.292-12.274c0 5.9-3.99 12.273-10.437 12.273H70.902c-2.717-1.136-6.647-4.357-6.647-13.521v-35.106h8.267c4.07 0 6.375-2.851 8.604-5.604 2.446-3.021 4.757-5.882 9.44-5.882h11.219c6.242 0 10.438 4.195 10.438 10.438v37.402z"/></svg>