<svg xmlns="http://www.w3.org/2000/svg" width="88.917" height="86.834"><path fill="#6C7988" d="M78.089 83.483H15.604c-5.566 0-10.093-4.525-10.093-10.092V10.904C5.511 5.339 10.038.81 15.604.81h62.485c5.564 0 10.095 4.528 10.095 10.094v62.488c0 5.566-4.528 10.091-10.095 10.091zM15.604 2.261c-4.766 0-8.643 3.877-8.643 8.643v62.488c0 4.768 3.877 8.646 8.643 8.646h62.485c4.769 0 8.646-3.878 8.646-8.646V10.904c0-4.766-3.877-8.643-8.646-8.643H15.604z"/><path fill="#6C7988" d="M46.807 10.796a31.28 31.28 0 00-18.91 6.337L17.361 6.598a4.565 4.565 0 00-3.242-1.359 4.413 4.413 0 00-3.141 1.307l-.095.094a4.557 4.557 0 000 6.436L21.46 23.654a31.277 31.277 0 00-6.101 18.593c0 17.34 14.107 31.447 31.448 31.447 17.342 0 31.448-14.107 31.448-31.447 0-17.343-14.106-31.451-31.448-31.451zm-34.898 1.253a3.107 3.107 0 01-.001-4.385l.095-.094a2.976 2.976 0 012.116-.881c.827 0 1.614.332 2.217.935L26.753 18.04a31.711 31.711 0 00-4.398 4.455L11.909 12.049zm34.898 60.194c-16.541 0-29.998-13.455-29.998-29.996 0-16.542 13.457-30 29.998-30s29.997 13.457 29.997 30c0 16.541-13.456 29.996-29.997 29.996z"/><path fill="#6C7988" d="M46.775 15.728c-14.627 0-26.486 11.858-26.486 26.486 0 14.629 11.858 26.486 26.486 26.486 14.629 0 26.486-11.857 26.486-26.486.002-14.629-11.857-26.486-26.486-26.486zM24.609 37.649a.788.788 0 110-1.577.788.788 0 010 1.577zm2.022-2.844a.997.997 0 110-1.994.997.997 0 010 1.994zm19.219-15.41a.997.997 0 11.001 1.995.997.997 0 01-.001-1.995zm-4.578.725a1.677 1.677 0 110 3.355 1.677 1.677 0 010-3.355zm-5.575 2.265a2.992 2.992 0 110 5.983 2.992 2.992 0 010-5.983zm-5.303 4.716a1.133 1.133 0 110 2.266 1.133 1.133 0 010-2.266zm-1.133 5.527a1.63 1.63 0 113.262 0 1.63 1.63 0 01-3.262 0zm27.983 28c-9.287 5.342-20.669 2.695-25.445-5.607-4.774-8.304-.768-20.829 8.521-26.167 9.29-5.34 22.418-2.502 27.193 5.802 4.774 8.302-.98 20.634-10.269 25.972z"/><path opacity=".2" fill="#6C7988" d="M46.807 73.694c-17.34 0-31.448-14.107-31.448-31.447 0-4.958 1.155-9.65 3.207-13.826C15.158 34 13.545 38.963 13.545 46.44c-.001 16.563 15.042 28.813 29.339 28.813 8 0 13.198-1.561 19.103-5.472a31.25 31.25 0 01-15.18 3.913z"/><path opacity=".2" fill="#6C7988" d="M78.089 83.483H15.604c-5.566 0-10.093-4.525-10.093-10.092V10.904c0-2.493.911-4.776 2.414-6.54-3.361 1.638-4.678 5.088-4.678 9.078v62.489c0 7.553 5.637 10.903 11.211 10.903h60.375c3.086 0 5.84-2.194 7.688-4.375a10.05 10.05 0 01-4.432 1.024z"/><path opacity=".6" fill="#6C7988" d="M29.532 54.112s-4.169-10.604 1.723-17.766c5.892-7.162 12.418-16.759 31.366-7.926 1.541.764 14.303 10.698 4.434 24.812-3.71 4.507-22.294 24.271-37.523.88z"/></svg>