<svg xmlns="http://www.w3.org/2000/svg" width="257.334" height="195.988"><path fill="#6C7988" d="M51.764 95.103H39.886a2.562 2.562 0 01-2.558-2.562v-3.146a2.564 2.564 0 012.558-2.562h11.878a2.563 2.563 0 012.559 2.562v3.146a2.563 2.563 0 01-2.559 2.562zm-11.878-7.348c-.903 0-1.64.735-1.64 1.642v3.147c0 .904.736 1.643 1.64 1.643h11.878c.903 0 1.641-.735 1.641-1.643v-3.147c0-.904-.736-1.642-1.641-1.642H39.886zm9.105 11.482h-6.793a1.652 1.652 0 01-1.652-1.56h-.002l.005-.101c.067-.894.78-1.558 1.649-1.558h6.793c.883 0 1.603.683 1.654 1.558h.002l-.004.101c-.068.895-.781 1.56-1.652 1.56zm-7.53-1.589c.016.357.34.67.736.67h6.793a.737.737 0 00.738-.708c-.018-.36-.34-.67-.738-.67h-6.793c-.395 0-.72.31-.736.708zM39.625 42.28h13.78v2.297h-13.78zm52.822 98.297h11.021v1.838H92.447zm-73.793 32.61h-3.533a3.058 3.058 0 01-3.056-3.059v-10.88a3.058 3.058 0 013.056-3.055h3.533a3.056 3.056 0 013.057 3.055v10.883a3.06 3.06 0 01-3.057 3.056zm-3.534-16.075a2.14 2.14 0 00-2.136 2.139v10.883a2.14 2.14 0 002.136 2.141h3.534a2.14 2.14 0 002.138-2.141v-10.883a2.142 2.142 0 00-2.138-2.139H15.12z"/><circle fill="#6C7988" cx="23.404" cy="141.811" r="1.693"/><circle fill="#6C7988" cx="70.256" cy="149.62" r="1.695"/><circle fill="#6C7988" cx="76.686" cy="149.62" r="1.695"/><circle fill="#6C7988" cx="83.115" cy="149.62" r="1.695"/><circle fill="#6C7988" cx="92.93" cy="149.787" r=".941"/><circle fill="#6C7988" cx="20.19" cy="146.865" r="1.692"/><circle fill="#6C7988" cx="23.404" cy="151.917" r="1.693"/><path fill="#6C7988" d="M98.838 173.187H70.439a1.88 1.88 0 01-1.877-1.877v-13.239a1.88 1.88 0 011.877-1.877h28.396a1.88 1.88 0 011.877 1.877v13.239a1.873 1.873 0 01-1.874 1.877zm-28.399-16.075a.962.962 0 00-.959.961v13.237c0 .527.43.959.959.959h28.396a.964.964 0 00.959-.959v-13.237a.964.964 0 00-.959-.961H70.439zm27.52-19.75a5.981 5.981 0 01-5.973-5.974c0-3.291 2.68-5.975 5.973-5.975s5.973 2.684 5.973 5.975a5.981 5.981 0 01-5.973 5.974zm0-11.025a5.062 5.062 0 00-5.053 5.057 5.06 5.06 0 005.053 5.054 5.061 5.061 0 005.053-5.054 5.059 5.059 0 00-5.053-5.057zM84.512 137.2a2.661 2.661 0 01-1.893-.785l-4.553-4.551 3.789-3.789.324.324s4.176 4.18 4.225 4.227a2.685 2.685 0 010 3.789 2.65 2.65 0 01-1.892.785zm-5.147-5.336l3.871 3.871c.363.359.805.545 1.271.545.473 0 .912-.186 1.244-.517a1.756 1.756 0 000-2.487c-.006-.005-1.313-1.318-3.896-3.904l-2.49 2.492z"/><circle fill="#6C7988" cx="84.482" cy="134.51" r="1.19"/><path fill="#6C7988" d="M50.656 175.026h-10.58a1.83 1.83 0 01-1.829-1.828v-10.58c0-1.01.82-1.83 1.829-1.83h10.579c1.01 0 1.83.82 1.83 1.83v10.58a1.83 1.83 0 01-1.829 1.828zm-10.58-13.32a.913.913 0 00-.911.912v10.58c0 .502.408.91.911.91h10.579a.911.911 0 00.911-.91v-10.58a.911.911 0 00-.911-.912H40.076z"/><path fill="#6C7988" d="M45.514 164.532c-1.065 1.242-2.551 2.662-2.551 3.981 0 .775.536 1.478.795 1.902v2.313h3.216v-2.312c.459-.438.938-1.13.938-1.906 0-1.316-1.392-2.792-2.398-3.978zm-.07 4.92a1.118 1.118 0 11.001-2.235 1.118 1.118 0 01-.001 2.235z"/><circle fill="#6C7988" cx="45.399" cy="162.868" r=".703"/><path fill="#6C7988" d="M25.385 132.308v-3.604l-.847.002-2.368-3.746h42.258v-.92h-41.34v-4.592h-3.215v7.35l2.297 4.662v.848zm20.441 55.32c-7.579.063-18.638 2.561-19.81 2.561-1.174 0-2.469-.95-2.469-2.123v-4.771h-4.46c-6.924 0-13.454-6.527-13.454-13.451v-25.916c0-2.598.918-4.877 2.43-6.717-3.331 2.021-5.645 5.351-5.645 9.474v25.91c0 6.928 6.531 13.457 13.454 13.457h4.46v6.769c0 1.172 1.295 2.122 2.468 2.122 1.174 0 12.231-2.495 19.811-2.557 7.58-.059 19.235 2.557 19.235 2.557 1.172 0 1.664-2.95 1.664-4.122v-.962c-3.422-.702-11.787-2.274-17.684-2.231zM25.844 17.63s1.071-3.902 1.914-9.341c.073-.466.188-.879.334-1.251-1.586.431-3.161 1.502-3.55 4.009-.842 5.438-1.915 9.339-1.915 9.339s-.063.39-.23.911c2.749.509 3.447-3.667 3.447-3.667zm73.359 165.668H66.725v2.758h29.264c3.463 0 6.367-1.639 8.406-4.137a10.353 10.353 0 01-5.192 1.379zM19.126 47.052s.797 2.727 3.044 3.647v5.359h-2.298v53.973l3.216 3.442v3.216h3.215v-5.974l-3.215-3.44V53.304h2.298v-5.359c-2.247-.923-3.044-3.646-3.044-3.646s-6.145-17.506-7.579-20.948c-.516-1.238-.828-2.219-.96-3.016-.647-.327-1.529-.578-2.256-.071-1.32.918-1.437 2.396 0 5.842 1.436 3.443 7.579 20.946 7.579 20.946z" opacity=".2"/><path fill="#6C7988" d="M99.203 119.644H87.984c-5.813 0-8.713 3.591-11.273 6.757-2.055 2.536-3.826 4.729-6.771 4.729h-2.955v-3.134l1.436-2.772h.402v-9.709h-2.756v-4.381l2.756-3.443V52.124h-3.479V49.43h.574c4.123 0 5.563-4.276 5.717-4.772.271-.77 6.166-17.327 7.549-20.643 1.086-2.605 2.02-5.813-.418-7.509a2.803 2.803 0 00-1.633-.503c-1.492 0-2.814 1.078-2.939 1.184 0 0-.854.682-2.842 2.33-.51.341-.967.521-1.324.521-1.145 0-1.756-2.229-1.854-2.828l-.031-.14c-.012-.036-1.061-3.663-1.879-8.961-.52-3.351-3.01-5.271-6.826-5.271-.818 0-1.455.093-1.722.138H35.137c-.265-.045-.9-.138-1.719-.138-3.818 0-6.307 1.921-6.825 5.271-.82 5.298-1.874 9.17-1.886 9.208l-.025.114c-.099.576-.701 2.729-1.829 2.729-.364 0-.83-.183-1.353-.531-1.94-1.606-2.798-2.351-2.811-2.359-.146-.126-1.479-1.233-2.981-1.233-.6 0-1.144.168-1.618.499-2.215 1.541-1.769 4.021-.415 7.265 1.381 3.315 7.283 20.114 7.546 20.861.128.414 1.219 3.654 4.164 4.54v2.922h-3.477v55.617l3.216 3.442v4.326h-3.216v9.711h.426l1.87 2.959v2.945h-5.116c-7.192 0-14.634 4.785-14.634 12.799v25.914c0 7.521 7.111 14.637 14.634 14.637h3.28v3.586c0 1.945 1.922 3.304 3.647 3.304.423 0 1.274-.148 3.337-.519 4.179-.746 11.175-1.996 16.479-2.037h.243c7.362 0 18.612 2.5 18.725 2.523l.258.027c1.73 0 2.844-1.298 2.844-3.304v-3.588h31.305c8.009 0 12.795-7.438 12.795-14.636v-37.395c-.001-7.528-5.265-12.791-12.798-12.791zm-33.267-65.16h.527V70.3h-.527V54.484zm0 20.868h.527V82.9h-.527v-7.548zm-42.46-31.383l-.02-.062c-.252-.716-6.172-17.576-7.604-21.013-1.521-3.651-.855-4.114-.415-4.421a.428.428 0 01.271-.076c.498 0 1.189.447 1.44.66.035.029.895.771 2.892 2.429l.088.064c.944.646 1.862.973 2.726.973 2.631 0 3.837-2.889 4.146-4.641.141-.521 1.128-4.266 1.926-9.413.336-2.171 1.848-3.271 4.492-3.271.797 0 1.379.112 1.382.113l.115.021h22.912l.23-.021c.008-.001.586-.114 1.383-.114 2.646 0 4.158 1.101 4.494 3.271.793 5.111 1.771 8.646 1.928 9.19.313 1.794 1.523 4.735 4.172 4.735.855 0 1.764-.323 2.697-.96l.088-.065c1.99-1.647 2.85-2.336 2.879-2.36.238-.2.934-.646 1.438-.646.15 0 .232.043.285.08.324.226 1.186.824-.412 4.663-1.434 3.435-7.354 20.08-7.605 20.787l-.02.062c-.037.127-.959 3.115-3.463 3.115H26.938c-2.504.003-3.425-2.977-3.462-3.1zM61.803 70.3V54.484h2.953V70.3h-2.953zm2.953 5.052V82.9h-2.953v-7.548h2.953zM57.539 70.3V54.484h3.084V70.3h-3.084zm3.084 5.052V82.9h-3.084v-7.548h3.084zM53.405 70.3V54.484h3.214V70.3h-3.214zm3.214 5.052V82.9h-3.214v-7.548h3.214zm-8.497-2.297c-.126 0-.229-.089-.229-.196v-.068c0-.104.103-.193.229-.193h4.594c.127 0 .229.087.229.193v.068c0 .106-.103.196-.229.196h-4.594zm4.363 2.297V82.9h-3.674v-7.548h3.674zM48.811 70.3V54.484h3.674V70.3h-3.674zm-12.633 2.755c-.126 0-.229-.089-.229-.196v-.068c0-.104.103-.193.229-.193h4.594c.127 0 .229.087.229.193v.068c0 .106-.103.196-.229.196h-4.594zm2.527 2.297V82.9H35.49l-.001-7.548h3.216zM35.489 70.3V54.484h3.216V70.3h-3.216zm4.136 0V54.484h4.134V70.3h-4.134zm0 5.052h4.134V82.9h-4.134v-7.548zm2.524-2.297c-.125 0-.229-.089-.229-.196v-.068c0-.104.104-.193.229-.193h4.595c.126 0 .229.087.229.193v.068c0 .106-.104.196-.229.196h-4.595zm2.527 2.297h3.217V82.9h-3.217v-7.548zm0-5.052V54.484h3.217V70.3h-3.217zm-14.109 0V54.484h4.004V70.3h-4.004zm4.004 5.052V82.9h-4.003l-.001-7.548h4.004zM26.434 70.3V54.484h2.955V70.3h-2.955zm2.955 5.052l.001 7.548h-2.955l-.001-7.548h2.955zm-5.121-20.868h.986V70.3h-.986V54.484zm.001 20.868h.985V82.9h-.985v-7.548zm0 9.908h42.194v21.327H24.269V85.26zm.648 22.247h41.031l-1.627 2.035H26.817l-1.9-2.035zm38.79 4.394v3.608H27.484v-3.608h36.223zm-39.438 5.971h42.193v4.988H24.269v-4.988zm2.296 11.943h38.062v1.313H26.565v-1.313zm-4.059 52.301h-3.418c-6.31 0-12.274-5.965-12.274-12.273V143.93c0-6.447 6.372-10.438 12.274-10.438h9.97v35.105c.002 9.167-3.835 12.386-6.552 13.519zm42.654 6.883c-1.463-.318-11.854-2.549-19.083-2.549h-.261c-5.507.043-12.625 1.313-16.878 2.074-1.304.229-2.649.473-2.922.479-.592 0-1.289-.514-1.289-.941v-3.586h40.816v3.586c.002.765-.221.91-.383.937zm-40.81-6.883c2.701-1.748 5.63-5.494 5.63-13.521V133.49h30.774v35.105c0 8.022 2.926 11.771 5.629 13.521H24.35zm85.291-12.273c0 5.9-3.99 12.273-10.436 12.273H68.32c-2.717-1.136-6.646-4.357-6.646-13.521V133.49h8.266c4.07 0 6.375-2.851 8.605-5.604 2.445-3.021 4.756-5.881 9.439-5.881h11.219c6.242 0 10.438 4.194 10.438 10.438v37.4zM199 48.494h1v29h-1z"/><path fill="#6C7988" d="M255 27.494v-12h-13v12h-1v8.67c0 3.455 2.687 6.442 6 7.163v54.241c0 4.097-.772 7.165-2.834 9.12-2.312 2.191-5.226 2.457-5.831 2.465 0 .001-.197.013-.283.013-.048-.002-.352 0-.352 0-.605.001-1.385.025-3.809-.089-3.246-.152-5.636-.889-7.363-2.64-2.67-2.708-2.528-6.685-2.528-6.749V73.036c0-3.818-1.231-7.05-3.435-9.185-3.353-3.251-8.088-3.357-8.233-3.357H206V42.973a8.478 8.478 0 00-8.479-8.479H109.48a8.479 8.479 0 00-8.48 8.479v48.041a8.48 8.48 0 008.48 8.479h88.039a8.478 8.478 0 008.48-8.479v-27.52h6.372c.034 0 3.706.176 6.119 2.537 1.577 1.542 2.509 4.051 2.509 7.006v26.62c0 .213-.199 5.396 3.359 9.03 2.319 2.368 6.482 3.359 9.561 3.504l2.225.085c1.703 0 6.84-.408 9.979-3.355 2.712-2.549 3.879-6.369 3.879-11.352V43.363c3.365-.646 6-3.678 6-7.199v-8.67H255zm-11-10h9v9h-9v-9zm-58 73h-69.888c-2.756 0-5.112-2.74-5.112-5.496V47.749c0-2.756 2.356-5.255 5.112-5.255H186v48zm0-49h-69.888c-3.424 0-6.112 2.831-6.112 6.255v37.249c0 3.424 2.688 6.496 6.112 6.496H186v5h-76.031c-3.345 0-5.969-2.712-5.969-6.057l.002-47.234c0-3.345 3.278-5.708 6.623-5.708H186v3.999zm17 48.943a6.057 6.057 0 01-6.058 6.057H187v-59h9.942c3.346 0 6.058 1.712 6.058 5.057v47.886z"/><path fill="#6C7988" d="M246 20.494h1v3h-1zm4 0h1v3h-1z"/><path fill="#6C7988" d="M243.188 28.494l.125-12h-3.646v12h-1v8.67c0 3.455 2.688 6.442 6 7.163v54.242c0 4.097-.771 7.164-2.834 9.119-2.313 2.191-5.225 2.457-5.831 2.465 0 .001-.198.013-.282.013-.049-.002-.353 0-.353 0-.604.001-1.384.025-3.81-.089-3.244-.152-5.635-.889-7.361-2.64-2.67-2.708-2.529-6.685-2.529-6.749V74.036c0-3.818-1.232-7.05-3.434-9.185-3.354-3.251-8.088-3.357-8.234-3.357h-6.332v3h6.372c.034 0 3.706.176 6.119 2.537 1.577 1.542 2.509 4.051 2.509 7.006v26.62c0 .213-.199 5.396 3.359 9.03 2.32 2.368 6.482 3.359 9.561 3.504l2.225.085c1.703 0 6.84-.408 9.979-3.355 2.712-2.549 3.879-6.369 3.879-11.352V44.363c3.365-.646 6-3.678 6-7.199v-8.67h-10.482zm-46.076 71H109.75c-4.676 0-8.75-4.216-8.75-8.892l.292-47.65c0-.437.008-2.015.07-2.433-2.153.766-3.362 3.969-3.362 5.866v47.853c0 4.014 4.255 8.258 8.269 8.258h87.816c2.37 0 4.471-1.928 5.796-3.685-.868.3-1.797.683-2.769.683z" opacity=".2"/><path fill="#6C7988" d="M187.63 188.976c-19.156 0-34.74-15.585-34.74-34.741s15.584-34.741 34.74-34.741 34.741 15.585 34.741 34.741-15.585 34.741-34.741 34.741zm0-67.565c-18.1 0-32.824 14.725-32.824 32.824 0 18.099 14.727 32.824 32.824 32.824 18.1 0 32.824-14.727 32.824-32.824 0-18.1-14.725-32.824-32.824-32.824zm.08 45.203c-6.781 0-12.3-5.518-12.3-12.3 0-6.781 5.519-12.299 12.3-12.299s12.299 5.518 12.299 12.299c0 6.782-5.518 12.3-12.299 12.3zm0-22.682c-5.725 0-10.383 4.656-10.383 10.382s4.658 10.383 10.383 10.383 10.383-4.657 10.383-10.383c0-5.723-4.658-10.382-10.383-10.382z"/><path fill="#6C7988" d="M187.472 184.584c-16.646 0-30.188-13.542-30.188-30.188s13.543-30.189 30.188-30.189c16.646 0 30.188 13.543 30.188 30.189-.001 16.646-13.543 30.188-30.188 30.188zm0-59.899c-16.384 0-29.711 13.326-29.711 29.71 0 16.382 13.327 29.71 29.711 29.71 16.381 0 29.709-13.328 29.709-29.71 0-16.384-13.328-29.71-29.709-29.71z"/><path fill="#6C7988" d="M187.729 170.847c-9.215 0-16.711-7.496-16.711-16.713 0-9.214 7.496-16.71 16.711-16.71s16.711 7.496 16.711 16.71c-.002 9.217-7.498 16.713-16.711 16.713zm0-32.462c-8.688 0-15.752 7.066-15.752 15.754 0 8.686 7.064 15.752 15.752 15.752 8.686 0 15.752-7.066 15.752-15.752 0-8.688-7.067-15.754-15.752-15.754z"/><path fill="#6C7988" d="M166.05 128.246l11.443 13.297-.726.625-11.443-13.297zm-12.144 20.815l17.558 2.227-.12.951-17.56-2.226zm44.384 17.341l11.44 13.297-.725.625-11.441-13.297zm5.421-10.036l17.56 2.225-.12.952-17.56-2.225z"/><path fill="#6C7988" d="M187.71 143.932a10.352 10.352 0 00-7.855 3.604 11.291 11.291 0 014.343-.862c6.264 0 11.341 5.077 11.341 11.343 0 1.33-.229 2.604-.65 3.791a10.356 10.356 0 003.207-7.494c-.003-5.723-4.661-10.382-10.386-10.382z" opacity=".19"/><path fill="#6C7988" d="M187.63 188.976c-19.156 0-34.74-15.585-34.74-34.741a34.522 34.522 0 014.241-16.621 33.63 33.63 0 00-6.798 20.323c0 18.657 15.125 33.78 33.783 33.78a33.653 33.653 0 0021.707-7.901 34.522 34.522 0 01-18.193 5.16z" opacity=".2"/></svg>